%TF.GenerationSoftware,KiCad,Pcbnew,9.0.2*%
%TF.CreationDate,2025-10-25T22:23:18+02:00*%
%TF.ProjectId,raspberry screen,72617370-6265-4727-9279-207363726565,rev?*%
%TF.SameCoordinates,Original*%
%TF.FileFunction,Copper,L1,Top*%
%TF.FilePolarity,Positive*%
%FSLAX46Y46*%
G04 Gerber Fmt 4.6, Leading zero omitted, Abs format (unit mm)*
G04 Created by KiCad (PCBNEW 9.0.2) date 2025-10-25 22:23:18*
%MOMM*%
%LPD*%
G01*
G04 APERTURE LIST*
%TA.AperFunction,ComponentPad*%
%ADD10R,1.700000X1.700000*%
%TD*%
%TA.AperFunction,ComponentPad*%
%ADD11C,1.700000*%
%TD*%
%TA.AperFunction,ViaPad*%
%ADD12C,0.600000*%
%TD*%
%TA.AperFunction,Conductor*%
%ADD13C,0.800000*%
%TD*%
%TA.AperFunction,Conductor*%
%ADD14C,0.300000*%
%TD*%
G04 APERTURE END LIST*
D10*
%TO.P,J2,1,Pin_1*%
%TO.N,+3V3*%
X3000000Y-45120000D03*
D11*
%TO.P,J2,2,Pin_2*%
%TO.N,GND*%
X3000000Y-42580000D03*
%TO.P,J2,3,Pin_3*%
%TO.N,Net-(J1-~{CE0}{slash}GPIO8)*%
X3000000Y-40040000D03*
%TO.P,J2,4,Pin_4*%
%TO.N,Net-(J1-GPIO25)*%
X3000000Y-37500000D03*
%TO.P,J2,5,Pin_5*%
%TO.N,Net-(J1-GPIO24)*%
X3000000Y-34960000D03*
%TO.P,J2,6,Pin_6*%
%TO.N,Net-(J1-MOSI0{slash}GPIO10)*%
X3000000Y-32420000D03*
%TO.P,J2,7,Pin_7*%
%TO.N,Net-(J1-SCLK0{slash}GPIO11)*%
X3000000Y-29880000D03*
%TO.P,J2,8,Pin_8*%
%TO.N,Net-(J1-GPIO23)*%
X3000000Y-27340000D03*
%TO.P,J2,9,Pin_9*%
%TO.N,Net-(J1-MISO0{slash}GPIO9)*%
X3000000Y-24800000D03*
%TO.P,J2,10,Pin_10*%
%TO.N,Net-(J1-GPIO17)*%
X3000000Y-22260000D03*
%TO.P,J2,11,Pin_11*%
%TO.N,Net-(J1-MISO0{slash}GPIO9)*%
X3000000Y-19720000D03*
%TO.P,J2,12,Pin_12*%
%TO.N,Net-(J1-MOSI0{slash}GPIO10)*%
X3000000Y-17180000D03*
%TO.P,J2,13,Pin_13*%
%TO.N,Net-(J1-~{CE1}{slash}GPIO7)*%
X3000000Y-14640000D03*
%TO.P,J2,14,Pin_14*%
%TO.N,Net-(J1-SCLK0{slash}GPIO11)*%
X3000000Y-12100000D03*
%TD*%
D10*
%TO.P,J3,1,Pin_1*%
%TO.N,+3V3*%
X9800000Y-5000000D03*
D11*
%TO.P,J3,2,Pin_2*%
%TO.N,+5V*%
X9800000Y-2460000D03*
%TO.P,J3,3,Pin_3*%
%TO.N,Net-(J1-SDA{slash}GPIO2)*%
X12340000Y-5000000D03*
%TO.P,J3,4,Pin_4*%
%TO.N,+5V*%
X12340000Y-2460000D03*
%TO.P,J3,5,Pin_5*%
%TO.N,Net-(J1-SCL{slash}GPIO3)*%
X14880000Y-5000000D03*
%TO.P,J3,6,Pin_6*%
%TO.N,GND*%
X14880000Y-2460000D03*
%TO.P,J3,7,Pin_7*%
%TO.N,Net-(J1-GCLK0{slash}GPIO4)*%
X17420000Y-5000000D03*
%TO.P,J3,8,Pin_8*%
%TO.N,Net-(J1-GPIO14{slash}TXD)*%
X17420000Y-2460000D03*
%TO.P,J3,9,Pin_9*%
%TO.N,GND*%
X19960000Y-5000000D03*
%TO.P,J3,10,Pin_10*%
%TO.N,Net-(J1-GPIO15{slash}RXD)*%
X19960000Y-2460000D03*
%TO.P,J3,11,Pin_11*%
%TO.N,Net-(J1-GPIO17)*%
X22500000Y-5000000D03*
%TO.P,J3,12,Pin_12*%
%TO.N,Net-(J1-GPIO18{slash}PWM0)*%
X22500000Y-2460000D03*
%TO.P,J3,13,Pin_13*%
%TO.N,Net-(J1-GPIO27)*%
X25040000Y-5000000D03*
%TO.P,J3,14,Pin_14*%
%TO.N,GND*%
X25040000Y-2460000D03*
%TO.P,J3,15,Pin_15*%
%TO.N,Net-(J1-GPIO22)*%
X27580000Y-5000000D03*
%TO.P,J3,16,Pin_16*%
%TO.N,Net-(J1-GPIO23)*%
X27580000Y-2460000D03*
%TO.P,J3,17,Pin_17*%
%TO.N,+3V3*%
X30120000Y-5000000D03*
%TO.P,J3,18,Pin_18*%
%TO.N,Net-(J1-GPIO24)*%
X30120000Y-2460000D03*
%TO.P,J3,19,Pin_19*%
%TO.N,Net-(J1-MOSI0{slash}GPIO10)*%
X32660000Y-5000000D03*
%TO.P,J3,20,Pin_20*%
%TO.N,GND*%
X32660000Y-2460000D03*
%TO.P,J3,21,Pin_21*%
%TO.N,Net-(J1-MISO0{slash}GPIO9)*%
X35200000Y-5000000D03*
%TO.P,J3,22,Pin_22*%
%TO.N,Net-(J1-GPIO25)*%
X35200000Y-2460000D03*
%TO.P,J3,23,Pin_23*%
%TO.N,Net-(J1-SCLK0{slash}GPIO11)*%
X37740000Y-5000000D03*
%TO.P,J3,24,Pin_24*%
%TO.N,Net-(J1-~{CE0}{slash}GPIO8)*%
X37740000Y-2460000D03*
%TO.P,J3,25,Pin_25*%
%TO.N,GND*%
X40280000Y-5000000D03*
%TO.P,J3,26,Pin_26*%
%TO.N,Net-(J1-~{CE1}{slash}GPIO7)*%
X40280000Y-2460000D03*
%TO.P,J3,27,Pin_27*%
%TO.N,Net-(J1-ID_SD{slash}GPIO0)*%
X42820000Y-5000000D03*
%TO.P,J3,28,Pin_28*%
%TO.N,Net-(J1-ID_SC{slash}GPIO1)*%
X42820000Y-2460000D03*
%TO.P,J3,29,Pin_29*%
%TO.N,Net-(J1-GCLK1{slash}GPIO5)*%
X45360000Y-5000000D03*
%TO.P,J3,30,Pin_30*%
%TO.N,GND*%
X45360000Y-2460000D03*
%TO.P,J3,31,Pin_31*%
%TO.N,Net-(J1-GCLK2{slash}GPIO6)*%
X47900000Y-5000000D03*
%TO.P,J3,32,Pin_32*%
%TO.N,Net-(J1-PWM0{slash}GPIO12)*%
X47900000Y-2460000D03*
%TO.P,J3,33,Pin_33*%
%TO.N,Net-(J1-PWM1{slash}GPIO13)*%
X50440000Y-5000000D03*
%TO.P,J3,34,Pin_34*%
%TO.N,GND*%
X50440000Y-2460000D03*
%TO.P,J3,35,Pin_35*%
%TO.N,Net-(J1-GPIO19{slash}MISO1)*%
X52980000Y-5000000D03*
%TO.P,J3,36,Pin_36*%
%TO.N,Net-(J1-GPIO16)*%
X52980000Y-2460000D03*
%TO.P,J3,37,Pin_37*%
%TO.N,Net-(J1-GPIO26)*%
X55520000Y-5000000D03*
%TO.P,J3,38,Pin_38*%
%TO.N,Net-(J1-GPIO20{slash}MOSI1)*%
X55520000Y-2460000D03*
%TO.P,J3,39,Pin_39*%
%TO.N,GND*%
X58060000Y-5000000D03*
%TO.P,J3,40,Pin_40*%
%TO.N,Net-(J1-GPIO21{slash}SCLK1)*%
X58060000Y-2460000D03*
%TD*%
D12*
%TO.N,Net-(J1-GPIO17)*%
X22064000Y-20892000D03*
%TO.N,Net-(J1-GPIO25)*%
X30929600Y-37811700D03*
%TO.N,Net-(J1-GPIO24)*%
X25019200Y-34921200D03*
%TO.N,Net-(J1-MISO0{slash}GPIO9)*%
X34721200Y-17578200D03*
%TO.N,Net-(J1-~{CE0}{slash}GPIO8)*%
X34721200Y-34174700D03*
%TD*%
D13*
%TO.N,GND*%
X23372100Y-792100D02*
X25040000Y-2460000D01*
X16547900Y-792100D02*
X23372100Y-792100D01*
X14880000Y-2460000D02*
X16547900Y-792100D01*
X50440000Y-2460000D02*
X50440000Y-808300D01*
X58749900Y-808300D02*
X50440000Y-808300D01*
X59737600Y-1796000D02*
X58749900Y-808300D01*
X59737600Y-3322400D02*
X59737600Y-1796000D01*
X58060000Y-5000000D02*
X59737600Y-3322400D01*
X47011700Y-808300D02*
X45360000Y-2460000D01*
X50440000Y-808300D02*
X47011700Y-808300D01*
X26691700Y-808300D02*
X25040000Y-2460000D01*
X32660000Y-808300D02*
X26691700Y-808300D01*
X32660000Y-2460000D02*
X32660000Y-808300D01*
X47011700Y-808300D02*
X32660000Y-808300D01*
D14*
%TO.N,Net-(J1-GPIO17)*%
X20696000Y-22260000D02*
X3000000Y-22260000D01*
X20696000Y-22260000D02*
X22064000Y-20892000D01*
%TO.N,Net-(J1-GPIO25)*%
X3311700Y-37811700D02*
X3000000Y-37500000D01*
X30929600Y-37811700D02*
X3311700Y-37811700D01*
%TO.N,Net-(J1-GPIO24)*%
X3000000Y-34960000D02*
X24980400Y-34960000D01*
X24980400Y-34960000D02*
X25019200Y-34921200D01*
%TO.N,Net-(J1-MOSI0{slash}GPIO10)*%
X1743200Y-15923200D02*
X3000000Y-17180000D01*
X1743200Y-13759600D02*
X1743200Y-15923200D01*
X27681800Y-9978200D02*
X32660000Y-5000000D01*
X2615400Y-9978200D02*
X27681800Y-9978200D01*
X1241500Y-11352100D02*
X2615400Y-9978200D01*
X1241500Y-13257900D02*
X1241500Y-11352100D01*
X1241500Y-13257900D02*
X1743200Y-13759600D01*
%TO.N,+5V*%
X12340000Y-2460000D02*
X9800000Y-2460000D01*
%TO.N,Net-(J1-~{CE1}{slash}GPIO7)*%
X38941700Y-3798300D02*
X40280000Y-2460000D01*
X34702300Y-3798300D02*
X38941700Y-3798300D01*
X33998300Y-4502300D02*
X34702300Y-3798300D01*
X33998300Y-5426700D02*
X33998300Y-4502300D01*
X28883200Y-10541800D02*
X33998300Y-5426700D01*
X2854400Y-10541800D02*
X28883200Y-10541800D01*
X1744700Y-11651500D02*
X2854400Y-10541800D01*
X1744700Y-12730200D02*
X1744700Y-11651500D01*
X3000000Y-13985500D02*
X1744700Y-12730200D01*
X3000000Y-14640000D02*
X3000000Y-13985500D01*
%TO.N,+3V3*%
X11001700Y-5375500D02*
X11001700Y-5000000D01*
X12049300Y-6423100D02*
X11001700Y-5375500D01*
X28696900Y-6423100D02*
X12049300Y-6423100D01*
X30120000Y-5000000D02*
X28696900Y-6423100D01*
X10398300Y-5000000D02*
X11001700Y-5000000D01*
X10398300Y-5000000D02*
X9800000Y-5000000D01*
X713500Y-42833500D02*
X3000000Y-45120000D01*
X713500Y-11151700D02*
X713500Y-42833500D01*
X6865200Y-5000000D02*
X713500Y-11151700D01*
X9800000Y-5000000D02*
X6865200Y-5000000D01*
%TO.N,Net-(J1-MISO0{slash}GPIO9)*%
X32579400Y-19720000D02*
X3000000Y-19720000D01*
X34721200Y-17578200D02*
X32579400Y-19720000D01*
%TO.N,Net-(J1-SCLK0{slash}GPIO11)*%
X30640000Y-12100000D02*
X3000000Y-12100000D01*
X37740000Y-5000000D02*
X30640000Y-12100000D01*
%TO.N,Net-(J1-~{CE0}{slash}GPIO8)*%
X29669500Y-40040000D02*
X3000000Y-40040000D01*
X34721200Y-34988300D02*
X29669500Y-40040000D01*
X34721200Y-34988300D02*
X34721200Y-34174700D01*
%TD*%
M02*
