%TF.GenerationSoftware,KiCad,Pcbnew,9.0.2*%
%TF.CreationDate,2025-10-25T22:23:18+02:00*%
%TF.ProjectId,raspberry screen,72617370-6265-4727-9279-207363726565,rev?*%
%TF.SameCoordinates,Original*%
%TF.FileFunction,Soldermask,Bot*%
%TF.FilePolarity,Negative*%
%FSLAX46Y46*%
G04 Gerber Fmt 4.6, Leading zero omitted, Abs format (unit mm)*
G04 Created by KiCad (PCBNEW 9.0.2) date 2025-10-25 22:23:18*
%MOMM*%
%LPD*%
G01*
G04 APERTURE LIST*
%ADD10C,2.700000*%
%ADD11R,1.700000X1.700000*%
%ADD12C,1.700000*%
G04 APERTURE END LIST*
D10*
%TO.C,REF\u002A\u002A2*%
X3500000Y-53000000D03*
%TD*%
D11*
%TO.C,J2*%
X3000000Y-45120000D03*
D12*
X3000000Y-42580000D03*
X3000000Y-40040000D03*
X3000000Y-37500000D03*
X3000000Y-34960000D03*
X3000000Y-32420000D03*
X3000000Y-29880000D03*
X3000000Y-27340000D03*
X3000000Y-24800000D03*
X3000000Y-22260000D03*
X3000000Y-19720000D03*
X3000000Y-17180000D03*
X3000000Y-14640000D03*
X3000000Y-12100000D03*
%TD*%
D10*
%TO.C,REF\u002A\u002A*%
X65000000Y-53000000D03*
%TD*%
%TO.C,REF\u002A\u002A3*%
X3500000Y-3500000D03*
%TD*%
%TO.C,REF\u002A\u002A1*%
X64500000Y-4000000D03*
%TD*%
D11*
%TO.C,J3*%
X9800000Y-5000000D03*
D12*
X9800000Y-2460000D03*
X12340000Y-5000000D03*
X12340000Y-2460000D03*
X14880000Y-5000000D03*
X14880000Y-2460000D03*
X17420000Y-5000000D03*
X17420000Y-2460000D03*
X19960000Y-5000000D03*
X19960000Y-2460000D03*
X22500000Y-5000000D03*
X22500000Y-2460000D03*
X25040000Y-5000000D03*
X25040000Y-2460000D03*
X27580000Y-5000000D03*
X27580000Y-2460000D03*
X30120000Y-5000000D03*
X30120000Y-2460000D03*
X32660000Y-5000000D03*
X32660000Y-2460000D03*
X35200000Y-5000000D03*
X35200000Y-2460000D03*
X37740000Y-5000000D03*
X37740000Y-2460000D03*
X40280000Y-5000000D03*
X40280000Y-2460000D03*
X42820000Y-5000000D03*
X42820000Y-2460000D03*
X45360000Y-5000000D03*
X45360000Y-2460000D03*
X47900000Y-5000000D03*
X47900000Y-2460000D03*
X50440000Y-5000000D03*
X50440000Y-2460000D03*
X52980000Y-5000000D03*
X52980000Y-2460000D03*
X55520000Y-5000000D03*
X55520000Y-2460000D03*
X58060000Y-5000000D03*
X58060000Y-2460000D03*
%TD*%
M02*
