M48
; DRILL file {KiCad 9.0.2} date 2025-10-25T22:23:40+0200
; FORMAT={-:-/ absolute / metric / decimal}
; #@! TF.CreationDate,2025-10-25T22:23:40+02:00
; #@! TF.GenerationSoftware,Kicad,Pcbnew,9.0.2
; #@! TF.FileFunction,Plated,1,2,PTH
FMAT,2
METRIC
; #@! TA.AperFunction,Plated,PTH,ViaDrill
T1C0.300
; #@! TA.AperFunction,Plated,PTH,ComponentDrill
T2C1.000
%
G90
G05
T1
X22.064Y-20.892
X25.019Y-34.921
X30.93Y-37.812
X34.721Y-17.578
X34.721Y-34.175
T2
X3.0Y-12.1
X3.0Y-14.64
X3.0Y-17.18
X3.0Y-19.72
X3.0Y-22.26
X3.0Y-24.8
X3.0Y-27.34
X3.0Y-29.88
X3.0Y-32.42
X3.0Y-34.96
X3.0Y-37.5
X3.0Y-40.04
X3.0Y-42.58
X3.0Y-45.12
X9.8Y-2.46
X9.8Y-5.0
X12.34Y-2.46
X12.34Y-5.0
X14.88Y-2.46
X14.88Y-5.0
X17.42Y-2.46
X17.42Y-5.0
X19.96Y-2.46
X19.96Y-5.0
X22.5Y-2.46
X22.5Y-5.0
X25.04Y-2.46
X25.04Y-5.0
X27.58Y-2.46
X27.58Y-5.0
X30.12Y-2.46
X30.12Y-5.0
X32.66Y-2.46
X32.66Y-5.0
X35.2Y-2.46
X35.2Y-5.0
X37.74Y-2.46
X37.74Y-5.0
X40.28Y-2.46
X40.28Y-5.0
X42.82Y-2.46
X42.82Y-5.0
X45.36Y-2.46
X45.36Y-5.0
X47.9Y-2.46
X47.9Y-5.0
X50.44Y-2.46
X50.44Y-5.0
X52.98Y-2.46
X52.98Y-5.0
X55.52Y-2.46
X55.52Y-5.0
X58.06Y-2.46
X58.06Y-5.0
M30
