%TF.GenerationSoftware,KiCad,Pcbnew,9.0.2*%
%TF.CreationDate,2025-10-25T22:23:18+02:00*%
%TF.ProjectId,raspberry screen,72617370-6265-4727-9279-207363726565,rev?*%
%TF.SameCoordinates,Original*%
%TF.FileFunction,Legend,Bot*%
%TF.FilePolarity,Positive*%
%FSLAX46Y46*%
G04 Gerber Fmt 4.6, Leading zero omitted, Abs format (unit mm)*
G04 Created by KiCad (PCBNEW 9.0.2) date 2025-10-25 22:23:18*
%MOMM*%
%LPD*%
G01*
G04 APERTURE LIST*
%ADD10C,0.150000*%
%ADD11C,0.120000*%
G04 APERTURE END LIST*
D10*
X6484819Y-3396666D02*
X7199104Y-3396666D01*
X7199104Y-3396666D02*
X7341961Y-3349047D01*
X7341961Y-3349047D02*
X7437200Y-3253809D01*
X7437200Y-3253809D02*
X7484819Y-3110952D01*
X7484819Y-3110952D02*
X7484819Y-3015714D01*
X6484819Y-3777619D02*
X6484819Y-4396666D01*
X6484819Y-4396666D02*
X6865771Y-4063333D01*
X6865771Y-4063333D02*
X6865771Y-4206190D01*
X6865771Y-4206190D02*
X6913390Y-4301428D01*
X6913390Y-4301428D02*
X6961009Y-4349047D01*
X6961009Y-4349047D02*
X7056247Y-4396666D01*
X7056247Y-4396666D02*
X7294342Y-4396666D01*
X7294342Y-4396666D02*
X7389580Y-4349047D01*
X7389580Y-4349047D02*
X7437200Y-4301428D01*
X7437200Y-4301428D02*
X7484819Y-4206190D01*
X7484819Y-4206190D02*
X7484819Y-3920476D01*
X7484819Y-3920476D02*
X7437200Y-3825238D01*
X7437200Y-3825238D02*
X7389580Y-3777619D01*
D11*
%TO.C,J3*%
X8470000Y-6330000D02*
X9800000Y-6330000D01*
X11070000Y-6330000D02*
X59390000Y-6330000D01*
X8470000Y-5000000D02*
X8470000Y-6330000D01*
X8470000Y-3730000D02*
X11070000Y-3730000D01*
X11070000Y-3730000D02*
X11070000Y-6330000D01*
X8470000Y-1130000D02*
X8470000Y-3730000D01*
X8470000Y-1130000D02*
X59390000Y-1130000D01*
X59390000Y-1130000D02*
X59390000Y-6330000D01*
%TD*%
M02*
