%TF.GenerationSoftware,KiCad,Pcbnew,9.0.2*%
%TF.CreationDate,2025-10-25T22:23:18+02:00*%
%TF.ProjectId,raspberry screen,72617370-6265-4727-9279-207363726565,rev?*%
%TF.SameCoordinates,Original*%
%TF.FileFunction,Copper,L2,Bot*%
%TF.FilePolarity,Positive*%
%FSLAX46Y46*%
G04 Gerber Fmt 4.6, Leading zero omitted, Abs format (unit mm)*
G04 Created by KiCad (PCBNEW 9.0.2) date 2025-10-25 22:23:18*
%MOMM*%
%LPD*%
G01*
G04 APERTURE LIST*
%TA.AperFunction,ComponentPad*%
%ADD10R,1.700000X1.700000*%
%TD*%
%TA.AperFunction,ComponentPad*%
%ADD11C,1.700000*%
%TD*%
%TA.AperFunction,ViaPad*%
%ADD12C,0.600000*%
%TD*%
%TA.AperFunction,Conductor*%
%ADD13C,0.800000*%
%TD*%
%TA.AperFunction,Conductor*%
%ADD14C,0.300000*%
%TD*%
G04 APERTURE END LIST*
D10*
%TO.P,J2,1,Pin_1*%
%TO.N,+3V3*%
X3000000Y-45120000D03*
D11*
%TO.P,J2,2,Pin_2*%
%TO.N,GND*%
X3000000Y-42580000D03*
%TO.P,J2,3,Pin_3*%
%TO.N,Net-(J1-~{CE0}{slash}GPIO8)*%
X3000000Y-40040000D03*
%TO.P,J2,4,Pin_4*%
%TO.N,Net-(J1-GPIO25)*%
X3000000Y-37500000D03*
%TO.P,J2,5,Pin_5*%
%TO.N,Net-(J1-GPIO24)*%
X3000000Y-34960000D03*
%TO.P,J2,6,Pin_6*%
%TO.N,Net-(J1-MOSI0{slash}GPIO10)*%
X3000000Y-32420000D03*
%TO.P,J2,7,Pin_7*%
%TO.N,Net-(J1-SCLK0{slash}GPIO11)*%
X3000000Y-29880000D03*
%TO.P,J2,8,Pin_8*%
%TO.N,Net-(J1-GPIO23)*%
X3000000Y-27340000D03*
%TO.P,J2,9,Pin_9*%
%TO.N,Net-(J1-MISO0{slash}GPIO9)*%
X3000000Y-24800000D03*
%TO.P,J2,10,Pin_10*%
%TO.N,Net-(J1-GPIO17)*%
X3000000Y-22260000D03*
%TO.P,J2,11,Pin_11*%
%TO.N,Net-(J1-MISO0{slash}GPIO9)*%
X3000000Y-19720000D03*
%TO.P,J2,12,Pin_12*%
%TO.N,Net-(J1-MOSI0{slash}GPIO10)*%
X3000000Y-17180000D03*
%TO.P,J2,13,Pin_13*%
%TO.N,Net-(J1-~{CE1}{slash}GPIO7)*%
X3000000Y-14640000D03*
%TO.P,J2,14,Pin_14*%
%TO.N,Net-(J1-SCLK0{slash}GPIO11)*%
X3000000Y-12100000D03*
%TD*%
D10*
%TO.P,J3,1,Pin_1*%
%TO.N,+3V3*%
X9800000Y-5000000D03*
D11*
%TO.P,J3,2,Pin_2*%
%TO.N,+5V*%
X9800000Y-2460000D03*
%TO.P,J3,3,Pin_3*%
%TO.N,Net-(J1-SDA{slash}GPIO2)*%
X12340000Y-5000000D03*
%TO.P,J3,4,Pin_4*%
%TO.N,+5V*%
X12340000Y-2460000D03*
%TO.P,J3,5,Pin_5*%
%TO.N,Net-(J1-SCL{slash}GPIO3)*%
X14880000Y-5000000D03*
%TO.P,J3,6,Pin_6*%
%TO.N,GND*%
X14880000Y-2460000D03*
%TO.P,J3,7,Pin_7*%
%TO.N,Net-(J1-GCLK0{slash}GPIO4)*%
X17420000Y-5000000D03*
%TO.P,J3,8,Pin_8*%
%TO.N,Net-(J1-GPIO14{slash}TXD)*%
X17420000Y-2460000D03*
%TO.P,J3,9,Pin_9*%
%TO.N,GND*%
X19960000Y-5000000D03*
%TO.P,J3,10,Pin_10*%
%TO.N,Net-(J1-GPIO15{slash}RXD)*%
X19960000Y-2460000D03*
%TO.P,J3,11,Pin_11*%
%TO.N,Net-(J1-GPIO17)*%
X22500000Y-5000000D03*
%TO.P,J3,12,Pin_12*%
%TO.N,Net-(J1-GPIO18{slash}PWM0)*%
X22500000Y-2460000D03*
%TO.P,J3,13,Pin_13*%
%TO.N,Net-(J1-GPIO27)*%
X25040000Y-5000000D03*
%TO.P,J3,14,Pin_14*%
%TO.N,GND*%
X25040000Y-2460000D03*
%TO.P,J3,15,Pin_15*%
%TO.N,Net-(J1-GPIO22)*%
X27580000Y-5000000D03*
%TO.P,J3,16,Pin_16*%
%TO.N,Net-(J1-GPIO23)*%
X27580000Y-2460000D03*
%TO.P,J3,17,Pin_17*%
%TO.N,+3V3*%
X30120000Y-5000000D03*
%TO.P,J3,18,Pin_18*%
%TO.N,Net-(J1-GPIO24)*%
X30120000Y-2460000D03*
%TO.P,J3,19,Pin_19*%
%TO.N,Net-(J1-MOSI0{slash}GPIO10)*%
X32660000Y-5000000D03*
%TO.P,J3,20,Pin_20*%
%TO.N,GND*%
X32660000Y-2460000D03*
%TO.P,J3,21,Pin_21*%
%TO.N,Net-(J1-MISO0{slash}GPIO9)*%
X35200000Y-5000000D03*
%TO.P,J3,22,Pin_22*%
%TO.N,Net-(J1-GPIO25)*%
X35200000Y-2460000D03*
%TO.P,J3,23,Pin_23*%
%TO.N,Net-(J1-SCLK0{slash}GPIO11)*%
X37740000Y-5000000D03*
%TO.P,J3,24,Pin_24*%
%TO.N,Net-(J1-~{CE0}{slash}GPIO8)*%
X37740000Y-2460000D03*
%TO.P,J3,25,Pin_25*%
%TO.N,GND*%
X40280000Y-5000000D03*
%TO.P,J3,26,Pin_26*%
%TO.N,Net-(J1-~{CE1}{slash}GPIO7)*%
X40280000Y-2460000D03*
%TO.P,J3,27,Pin_27*%
%TO.N,Net-(J1-ID_SD{slash}GPIO0)*%
X42820000Y-5000000D03*
%TO.P,J3,28,Pin_28*%
%TO.N,Net-(J1-ID_SC{slash}GPIO1)*%
X42820000Y-2460000D03*
%TO.P,J3,29,Pin_29*%
%TO.N,Net-(J1-GCLK1{slash}GPIO5)*%
X45360000Y-5000000D03*
%TO.P,J3,30,Pin_30*%
%TO.N,GND*%
X45360000Y-2460000D03*
%TO.P,J3,31,Pin_31*%
%TO.N,Net-(J1-GCLK2{slash}GPIO6)*%
X47900000Y-5000000D03*
%TO.P,J3,32,Pin_32*%
%TO.N,Net-(J1-PWM0{slash}GPIO12)*%
X47900000Y-2460000D03*
%TO.P,J3,33,Pin_33*%
%TO.N,Net-(J1-PWM1{slash}GPIO13)*%
X50440000Y-5000000D03*
%TO.P,J3,34,Pin_34*%
%TO.N,GND*%
X50440000Y-2460000D03*
%TO.P,J3,35,Pin_35*%
%TO.N,Net-(J1-GPIO19{slash}MISO1)*%
X52980000Y-5000000D03*
%TO.P,J3,36,Pin_36*%
%TO.N,Net-(J1-GPIO16)*%
X52980000Y-2460000D03*
%TO.P,J3,37,Pin_37*%
%TO.N,Net-(J1-GPIO26)*%
X55520000Y-5000000D03*
%TO.P,J3,38,Pin_38*%
%TO.N,Net-(J1-GPIO20{slash}MOSI1)*%
X55520000Y-2460000D03*
%TO.P,J3,39,Pin_39*%
%TO.N,GND*%
X58060000Y-5000000D03*
%TO.P,J3,40,Pin_40*%
%TO.N,Net-(J1-GPIO21{slash}SCLK1)*%
X58060000Y-2460000D03*
%TD*%
D12*
%TO.N,Net-(J1-GPIO17)*%
X22064000Y-20892000D03*
%TO.N,Net-(J1-GPIO25)*%
X30929600Y-37811700D03*
%TO.N,Net-(J1-GPIO24)*%
X25019200Y-34921200D03*
%TO.N,Net-(J1-MISO0{slash}GPIO9)*%
X34721200Y-17578200D03*
%TO.N,Net-(J1-~{CE0}{slash}GPIO8)*%
X34721200Y-34174700D03*
%TD*%
D13*
%TO.N,GND*%
X8102300Y-37477700D02*
X8102300Y-6659600D01*
X3000000Y-42580000D02*
X8102300Y-37477700D01*
X18300400Y-6659600D02*
X8102300Y-6659600D01*
X19960000Y-5000000D02*
X18300400Y-6659600D01*
X56372000Y-6688000D02*
X58060000Y-5000000D01*
X41968000Y-6688000D02*
X56372000Y-6688000D01*
X40280000Y-5000000D02*
X41968000Y-6688000D01*
X13188100Y-768100D02*
X14880000Y-2460000D01*
X9088900Y-768100D02*
X13188100Y-768100D01*
X8102300Y-1754700D02*
X9088900Y-768100D01*
X8102300Y-6659600D02*
X8102300Y-1754700D01*
D14*
%TO.N,Net-(J1-GPIO17)*%
X22064000Y-5436000D02*
X22064000Y-20892000D01*
X22500000Y-5000000D02*
X22064000Y-5436000D01*
%TO.N,Net-(J1-GPIO25)*%
X33930000Y-3730000D02*
X35200000Y-2460000D01*
X33930000Y-34811300D02*
X33930000Y-3730000D01*
X30929600Y-37811700D02*
X33930000Y-34811300D01*
%TO.N,Net-(J1-GPIO24)*%
X28850000Y-3730000D02*
X30120000Y-2460000D01*
X28850000Y-31090400D02*
X28850000Y-3730000D01*
X25019200Y-34921200D02*
X28850000Y-31090400D01*
%TO.N,Net-(J1-MOSI0{slash}GPIO10)*%
X4256100Y-31163900D02*
X3000000Y-32420000D01*
X4256100Y-18436100D02*
X4256100Y-31163900D01*
X3000000Y-17180000D02*
X4256100Y-18436100D01*
%TO.N,Net-(J1-MISO0{slash}GPIO9)*%
X34721200Y-5478800D02*
X34721200Y-17578200D01*
X35200000Y-5000000D02*
X34721200Y-5478800D01*
X1743900Y-20976100D02*
X3000000Y-19720000D01*
X1743900Y-23541900D02*
X1743900Y-20976100D01*
X3000000Y-24798000D02*
X1743900Y-23541900D01*
X3000000Y-24800000D02*
X3000000Y-24798000D01*
%TO.N,Net-(J1-SCLK0{slash}GPIO11)*%
X740500Y-24001800D02*
X1242200Y-24503500D01*
X740500Y-14359500D02*
X740500Y-24001800D01*
X3000000Y-12100000D02*
X740500Y-14359500D01*
X1242200Y-28122200D02*
X3000000Y-29880000D01*
X1242200Y-24503500D02*
X1242200Y-28122200D01*
%TO.N,Net-(J1-GPIO23)*%
X1771100Y-26111100D02*
X3000000Y-27340000D01*
X1771100Y-24278500D02*
X1771100Y-26111100D01*
X1536700Y-24044100D02*
X1771100Y-24278500D01*
X1492200Y-24044100D02*
X1536700Y-24044100D01*
X1242200Y-23794100D02*
X1492200Y-24044100D01*
X1242200Y-17183600D02*
X1242200Y-23794100D01*
X2515800Y-15910000D02*
X1242200Y-17183600D01*
X3436300Y-15910000D02*
X2515800Y-15910000D01*
X6940200Y-12406100D02*
X3436300Y-15910000D01*
X6940200Y-1551100D02*
X6940200Y-12406100D01*
X8700400Y209100D02*
X6940200Y-1551100D01*
X24910900Y209100D02*
X8700400Y209100D01*
X27580000Y-2460000D02*
X24910900Y209100D01*
%TO.N,Net-(J1-~{CE0}{slash}GPIO8)*%
X36470000Y-3730000D02*
X37740000Y-2460000D01*
X36470000Y-32425900D02*
X36470000Y-3730000D01*
X34721200Y-34174700D02*
X36470000Y-32425900D01*
%TD*%
%TA.AperFunction,Conductor*%
%TO.N,GND*%
G36*
X84695114Y3479815D02*
G01*
X84740869Y3427011D01*
X84752074Y3376012D01*
X84996913Y-55874988D01*
X84977506Y-55942108D01*
X84924891Y-55988081D01*
X84872914Y-55999500D01*
X624500Y-55999500D01*
X557461Y-55979815D01*
X511706Y-55927011D01*
X500500Y-55875500D01*
X500500Y-52874038D01*
X1899500Y-52874038D01*
X1899500Y-53125961D01*
X1938910Y-53374785D01*
X2016760Y-53614383D01*
X2131132Y-53838848D01*
X2279201Y-54042649D01*
X2279205Y-54042654D01*
X2457345Y-54220794D01*
X2457350Y-54220798D01*
X2635117Y-54349952D01*
X2661155Y-54368870D01*
X2804184Y-54441747D01*
X2885616Y-54483239D01*
X2885618Y-54483239D01*
X2885621Y-54483241D01*
X3125215Y-54561090D01*
X3374038Y-54600500D01*
X3374039Y-54600500D01*
X3625961Y-54600500D01*
X3625962Y-54600500D01*
X3874785Y-54561090D01*
X4114379Y-54483241D01*
X4338845Y-54368870D01*
X4542656Y-54220793D01*
X4720793Y-54042656D01*
X4868870Y-53838845D01*
X4983241Y-53614379D01*
X5061090Y-53374785D01*
X5100500Y-53125962D01*
X5100500Y-52874038D01*
X63399500Y-52874038D01*
X63399500Y-53125961D01*
X63438910Y-53374785D01*
X63516760Y-53614383D01*
X63631132Y-53838848D01*
X63779201Y-54042649D01*
X63779205Y-54042654D01*
X63957345Y-54220794D01*
X63957350Y-54220798D01*
X64135117Y-54349952D01*
X64161155Y-54368870D01*
X64304184Y-54441747D01*
X64385616Y-54483239D01*
X64385618Y-54483239D01*
X64385621Y-54483241D01*
X64625215Y-54561090D01*
X64874038Y-54600500D01*
X64874039Y-54600500D01*
X65125961Y-54600500D01*
X65125962Y-54600500D01*
X65374785Y-54561090D01*
X65614379Y-54483241D01*
X65838845Y-54368870D01*
X66042656Y-54220793D01*
X66220793Y-54042656D01*
X66368870Y-53838845D01*
X66483241Y-53614379D01*
X66561090Y-53374785D01*
X66600500Y-53125962D01*
X66600500Y-52874038D01*
X66561090Y-52625215D01*
X66483241Y-52385621D01*
X66483239Y-52385618D01*
X66483239Y-52385616D01*
X66441747Y-52304184D01*
X66368870Y-52161155D01*
X66349952Y-52135117D01*
X66220798Y-51957350D01*
X66220794Y-51957345D01*
X66042654Y-51779205D01*
X66042649Y-51779201D01*
X65838848Y-51631132D01*
X65838847Y-51631131D01*
X65838845Y-51631130D01*
X65768747Y-51595413D01*
X65614383Y-51516760D01*
X65374785Y-51438910D01*
X65125962Y-51399500D01*
X64874038Y-51399500D01*
X64749626Y-51419205D01*
X64625214Y-51438910D01*
X64385616Y-51516760D01*
X64161151Y-51631132D01*
X63957350Y-51779201D01*
X63957345Y-51779205D01*
X63779205Y-51957345D01*
X63779201Y-51957350D01*
X63631132Y-52161151D01*
X63516760Y-52385616D01*
X63438910Y-52625214D01*
X63399500Y-52874038D01*
X5100500Y-52874038D01*
X5061090Y-52625215D01*
X4983241Y-52385621D01*
X4983239Y-52385618D01*
X4983239Y-52385616D01*
X4941747Y-52304184D01*
X4868870Y-52161155D01*
X4849952Y-52135117D01*
X4720798Y-51957350D01*
X4720794Y-51957345D01*
X4542654Y-51779205D01*
X4542649Y-51779201D01*
X4338848Y-51631132D01*
X4338847Y-51631131D01*
X4338845Y-51631130D01*
X4268747Y-51595413D01*
X4114383Y-51516760D01*
X3874785Y-51438910D01*
X3625962Y-51399500D01*
X3374038Y-51399500D01*
X3249626Y-51419205D01*
X3125214Y-51438910D01*
X2885616Y-51516760D01*
X2661151Y-51631132D01*
X2457350Y-51779201D01*
X2457345Y-51779205D01*
X2279205Y-51957345D01*
X2279201Y-51957350D01*
X2131132Y-52161151D01*
X2016760Y-52385616D01*
X1938910Y-52625214D01*
X1899500Y-52874038D01*
X500500Y-52874038D01*
X500500Y-28591809D01*
X520185Y-28524770D01*
X572989Y-28479015D01*
X642147Y-28469071D01*
X705703Y-28498096D01*
X727603Y-28522920D01*
X736923Y-28536869D01*
X736927Y-28536874D01*
X1649342Y-29449288D01*
X1682827Y-29510611D01*
X1682319Y-29558755D01*
X1683516Y-29558945D01*
X1649500Y-29773713D01*
X1649500Y-29986286D01*
X1682753Y-30196239D01*
X1748444Y-30398414D01*
X1844951Y-30587820D01*
X1969890Y-30759786D01*
X2120213Y-30910109D01*
X2292182Y-31035050D01*
X2300946Y-31039516D01*
X2351742Y-31087491D01*
X2368536Y-31155312D01*
X2345998Y-31221447D01*
X2300946Y-31260484D01*
X2292182Y-31264949D01*
X2120213Y-31389890D01*
X1969890Y-31540213D01*
X1844951Y-31712179D01*
X1748444Y-31901585D01*
X1682753Y-32103760D01*
X1649500Y-32313713D01*
X1649500Y-32526286D01*
X1682401Y-32734019D01*
X1682754Y-32736243D01*
X1716653Y-32840574D01*
X1748444Y-32938414D01*
X1844951Y-33127820D01*
X1969890Y-33299786D01*
X2120213Y-33450109D01*
X2292182Y-33575050D01*
X2300946Y-33579516D01*
X2351742Y-33627491D01*
X2368536Y-33695312D01*
X2345998Y-33761447D01*
X2300946Y-33800484D01*
X2292182Y-33804949D01*
X2120213Y-33929890D01*
X1969890Y-34080213D01*
X1844951Y-34252179D01*
X1748444Y-34441585D01*
X1682753Y-34643760D01*
X1649500Y-34853713D01*
X1649500Y-35066286D01*
X1663503Y-35154701D01*
X1682754Y-35276243D01*
X1733196Y-35431488D01*
X1748444Y-35478414D01*
X1844951Y-35667820D01*
X1969890Y-35839786D01*
X2120213Y-35990109D01*
X2292182Y-36115050D01*
X2300946Y-36119516D01*
X2351742Y-36167491D01*
X2368536Y-36235312D01*
X2345998Y-36301447D01*
X2300946Y-36340484D01*
X2292182Y-36344949D01*
X2120213Y-36469890D01*
X1969890Y-36620213D01*
X1844951Y-36792179D01*
X1748444Y-36981585D01*
X1682753Y-37183760D01*
X1664120Y-37301407D01*
X1649500Y-37393713D01*
X1649500Y-37606287D01*
X1682754Y-37816243D01*
X1735351Y-37978120D01*
X1748444Y-38018414D01*
X1844951Y-38207820D01*
X1969890Y-38379786D01*
X2120213Y-38530109D01*
X2292182Y-38655050D01*
X2300946Y-38659516D01*
X2351742Y-38707491D01*
X2368536Y-38775312D01*
X2345998Y-38841447D01*
X2300946Y-38880484D01*
X2292182Y-38884949D01*
X2120213Y-39009890D01*
X1969890Y-39160213D01*
X1844951Y-39332179D01*
X1748444Y-39521585D01*
X1682753Y-39723760D01*
X1649500Y-39933713D01*
X1649500Y-40146286D01*
X1682753Y-40356239D01*
X1748444Y-40558414D01*
X1844951Y-40747820D01*
X1969890Y-40919786D01*
X2120213Y-41070109D01*
X2292179Y-41195048D01*
X2292181Y-41195049D01*
X2292184Y-41195051D01*
X2301493Y-41199794D01*
X2352290Y-41247766D01*
X2369087Y-41315587D01*
X2346552Y-41381722D01*
X2301505Y-41420760D01*
X2292446Y-41425376D01*
X2292440Y-41425380D01*
X2238282Y-41464727D01*
X2238282Y-41464728D01*
X2870591Y-42097037D01*
X2807007Y-42114075D01*
X2692993Y-42179901D01*
X2599901Y-42272993D01*
X2534075Y-42387007D01*
X2517037Y-42450591D01*
X1884728Y-41818282D01*
X1884727Y-41818282D01*
X1845380Y-41872439D01*
X1748904Y-42061782D01*
X1683242Y-42263869D01*
X1683242Y-42263872D01*
X1650000Y-42473753D01*
X1650000Y-42686246D01*
X1683242Y-42896127D01*
X1683242Y-42896130D01*
X1748904Y-43098217D01*
X1845375Y-43287550D01*
X1884728Y-43341716D01*
X2517037Y-42709408D01*
X2534075Y-42772993D01*
X2599901Y-42887007D01*
X2692993Y-42980099D01*
X2807007Y-43045925D01*
X2870590Y-43062962D01*
X2200370Y-43733181D01*
X2139047Y-43766666D01*
X2112698Y-43769500D01*
X2102134Y-43769500D01*
X2102123Y-43769501D01*
X2042516Y-43775908D01*
X1907671Y-43826202D01*
X1907664Y-43826206D01*
X1792455Y-43912452D01*
X1792452Y-43912455D01*
X1706206Y-44027664D01*
X1706202Y-44027671D01*
X1655908Y-44162517D01*
X1649501Y-44222116D01*
X1649501Y-44222123D01*
X1649500Y-44222135D01*
X1649500Y-46017870D01*
X1649501Y-46017876D01*
X1655908Y-46077483D01*
X1706202Y-46212328D01*
X1706206Y-46212335D01*
X1792452Y-46327544D01*
X1792455Y-46327547D01*
X1907664Y-46413793D01*
X1907671Y-46413797D01*
X2042517Y-46464091D01*
X2042516Y-46464091D01*
X2049444Y-46464835D01*
X2102127Y-46470500D01*
X3897872Y-46470499D01*
X3957483Y-46464091D01*
X4092331Y-46413796D01*
X4207546Y-46327546D01*
X4293796Y-46212331D01*
X4344091Y-46077483D01*
X4350500Y-46017873D01*
X4350499Y-44222128D01*
X4344091Y-44162517D01*
X4293796Y-44027669D01*
X4293795Y-44027668D01*
X4293793Y-44027664D01*
X4207547Y-43912455D01*
X4207544Y-43912452D01*
X4092335Y-43826206D01*
X4092328Y-43826202D01*
X3957482Y-43775908D01*
X3957483Y-43775908D01*
X3897883Y-43769501D01*
X3897881Y-43769500D01*
X3897873Y-43769500D01*
X3897865Y-43769500D01*
X3887309Y-43769500D01*
X3820270Y-43749815D01*
X3799628Y-43733181D01*
X3129408Y-43062962D01*
X3192993Y-43045925D01*
X3307007Y-42980099D01*
X3400099Y-42887007D01*
X3465925Y-42772993D01*
X3482962Y-42709408D01*
X4115270Y-43341717D01*
X4115270Y-43341716D01*
X4154622Y-43287554D01*
X4251095Y-43098217D01*
X4316757Y-42896130D01*
X4316757Y-42896127D01*
X4350000Y-42686246D01*
X4350000Y-42473753D01*
X4316757Y-42263872D01*
X4316757Y-42263869D01*
X4251095Y-42061782D01*
X4154624Y-41872449D01*
X4115270Y-41818282D01*
X4115269Y-41818282D01*
X3482962Y-42450590D01*
X3465925Y-42387007D01*
X3400099Y-42272993D01*
X3307007Y-42179901D01*
X3192993Y-42114075D01*
X3129409Y-42097037D01*
X3761716Y-41464728D01*
X3707547Y-41425373D01*
X3707547Y-41425372D01*
X3698500Y-41420763D01*
X3647706Y-41372788D01*
X3630912Y-41304966D01*
X3653451Y-41238832D01*
X3698508Y-41199793D01*
X3707816Y-41195051D01*
X3787007Y-41137515D01*
X3879786Y-41070109D01*
X3879788Y-41070106D01*
X3879792Y-41070104D01*
X4030104Y-40919792D01*
X4030106Y-40919788D01*
X4030109Y-40919786D01*
X4155048Y-40747820D01*
X4155047Y-40747820D01*
X4155051Y-40747816D01*
X4251557Y-40558412D01*
X4317246Y-40356243D01*
X4350500Y-40146287D01*
X4350500Y-39933713D01*
X4317246Y-39723757D01*
X4251557Y-39521588D01*
X4155051Y-39332184D01*
X4155049Y-39332181D01*
X4155048Y-39332179D01*
X4030109Y-39160213D01*
X3879786Y-39009890D01*
X3707820Y-38884951D01*
X3707115Y-38884591D01*
X3699054Y-38880485D01*
X3648259Y-38832512D01*
X3631463Y-38764692D01*
X3653999Y-38698556D01*
X3699054Y-38659515D01*
X3707816Y-38655051D01*
X3766797Y-38612199D01*
X3879786Y-38530109D01*
X3879788Y-38530106D01*
X3879792Y-38530104D01*
X4030104Y-38379792D01*
X4030106Y-38379788D01*
X4030109Y-38379786D01*
X4155048Y-38207820D01*
X4155047Y-38207820D01*
X4155051Y-38207816D01*
X4251557Y-38018412D01*
X4317246Y-37816243D01*
X4350500Y-37606287D01*
X4350500Y-37393713D01*
X4317246Y-37183757D01*
X4251557Y-36981588D01*
X4155051Y-36792184D01*
X4155049Y-36792181D01*
X4155048Y-36792179D01*
X4030109Y-36620213D01*
X3879786Y-36469890D01*
X3707820Y-36344951D01*
X3707115Y-36344591D01*
X3699054Y-36340485D01*
X3648259Y-36292512D01*
X3631463Y-36224692D01*
X3653999Y-36158556D01*
X3699054Y-36119515D01*
X3707816Y-36115051D01*
X3729789Y-36099086D01*
X3879786Y-35990109D01*
X3879788Y-35990106D01*
X3879792Y-35990104D01*
X4030104Y-35839792D01*
X4030106Y-35839788D01*
X4030109Y-35839786D01*
X4155048Y-35667820D01*
X4155047Y-35667820D01*
X4155051Y-35667816D01*
X4251557Y-35478412D01*
X4317246Y-35276243D01*
X4350500Y-35066287D01*
X4350500Y-34853713D01*
X4317246Y-34643757D01*
X4251557Y-34441588D01*
X4155051Y-34252184D01*
X4155049Y-34252181D01*
X4155048Y-34252179D01*
X4030109Y-34080213D01*
X3879786Y-33929890D01*
X3707820Y-33804951D01*
X3707115Y-33804591D01*
X3699054Y-33800485D01*
X3648259Y-33752512D01*
X3631463Y-33684692D01*
X3653999Y-33618556D01*
X3699054Y-33579515D01*
X3707816Y-33575051D01*
X3729789Y-33559086D01*
X3879786Y-33450109D01*
X3879788Y-33450106D01*
X3879792Y-33450104D01*
X4030104Y-33299792D01*
X4030106Y-33299788D01*
X4030109Y-33299786D01*
X4155048Y-33127820D01*
X4155047Y-33127820D01*
X4155051Y-33127816D01*
X4251557Y-32938412D01*
X4317246Y-32736243D01*
X4350500Y-32526287D01*
X4350500Y-32313713D01*
X4327946Y-32171316D01*
X4316484Y-32098945D01*
X4318126Y-32098684D01*
X4321254Y-32036137D01*
X4350657Y-31989288D01*
X4761372Y-31578574D01*
X4761372Y-31578573D01*
X4761377Y-31578569D01*
X4832566Y-31472026D01*
X4881601Y-31353643D01*
X4906600Y-31227969D01*
X4906600Y-31099831D01*
X4906600Y-18372031D01*
X4906600Y-18372028D01*
X4881602Y-18246360D01*
X4881600Y-18246354D01*
X4861289Y-18197321D01*
X4861287Y-18197316D01*
X4832568Y-18127978D01*
X4832562Y-18127968D01*
X4761378Y-18021432D01*
X4761372Y-18021425D01*
X4350657Y-17610711D01*
X4317172Y-17549388D01*
X4317689Y-17501245D01*
X4316484Y-17501055D01*
X4341248Y-17344703D01*
X4350500Y-17286287D01*
X4350500Y-17073713D01*
X4317246Y-16863757D01*
X4251557Y-16661588D01*
X4155051Y-16472184D01*
X4143330Y-16456052D01*
X4065394Y-16348780D01*
X4041914Y-16282974D01*
X4057740Y-16214920D01*
X4078027Y-16188218D01*
X7445477Y-12820769D01*
X7516665Y-12714227D01*
X7565701Y-12595844D01*
X7581848Y-12514669D01*
X7590700Y-12470169D01*
X7590700Y-1871908D01*
X7610385Y-1804869D01*
X7627019Y-1784227D01*
X8933527Y-477719D01*
X8994850Y-444234D01*
X9021208Y-441400D01*
X24590092Y-441400D01*
X24657131Y-461085D01*
X24677773Y-477719D01*
X25098373Y-898319D01*
X25131858Y-959642D01*
X25126874Y-1029334D01*
X25085002Y-1085267D01*
X25019538Y-1109684D01*
X25010692Y-1110000D01*
X24933754Y-1110000D01*
X24723872Y-1143242D01*
X24723869Y-1143242D01*
X24521782Y-1208904D01*
X24332439Y-1305380D01*
X24278282Y-1344727D01*
X24278282Y-1344728D01*
X24910591Y-1977037D01*
X24847007Y-1994075D01*
X24732993Y-2059901D01*
X24639901Y-2152993D01*
X24574075Y-2267007D01*
X24557037Y-2330591D01*
X23924728Y-1698282D01*
X23924727Y-1698282D01*
X23885380Y-1752440D01*
X23885376Y-1752446D01*
X23880760Y-1761505D01*
X23832781Y-1812297D01*
X23764959Y-1829087D01*
X23698826Y-1806543D01*
X23659794Y-1761493D01*
X23655051Y-1752184D01*
X23655049Y-1752181D01*
X23655048Y-1752179D01*
X23530109Y-1580213D01*
X23379786Y-1429890D01*
X23207820Y-1304951D01*
X23018414Y-1208444D01*
X23018413Y-1208443D01*
X23018412Y-1208443D01*
X22816243Y-1142754D01*
X22816241Y-1142753D01*
X22816240Y-1142753D01*
X22654957Y-1117208D01*
X22606287Y-1109500D01*
X22393713Y-1109500D01*
X22345042Y-1117208D01*
X22183760Y-1142753D01*
X21981585Y-1208444D01*
X21792179Y-1304951D01*
X21620213Y-1429890D01*
X21469890Y-1580213D01*
X21344949Y-1752182D01*
X21340484Y-1760946D01*
X21292509Y-1811742D01*
X21224688Y-1828536D01*
X21158553Y-1805998D01*
X21119516Y-1760946D01*
X21115050Y-1752182D01*
X20990109Y-1580213D01*
X20839786Y-1429890D01*
X20667820Y-1304951D01*
X20478414Y-1208444D01*
X20478413Y-1208443D01*
X20478412Y-1208443D01*
X20276243Y-1142754D01*
X20276241Y-1142753D01*
X20276240Y-1142753D01*
X20114957Y-1117208D01*
X20066287Y-1109500D01*
X19853713Y-1109500D01*
X19805042Y-1117208D01*
X19643760Y-1142753D01*
X19441585Y-1208444D01*
X19252179Y-1304951D01*
X19080213Y-1429890D01*
X18929890Y-1580213D01*
X18804949Y-1752182D01*
X18800484Y-1760946D01*
X18752509Y-1811742D01*
X18684688Y-1828536D01*
X18618553Y-1805998D01*
X18579516Y-1760946D01*
X18575050Y-1752182D01*
X18450109Y-1580213D01*
X18299786Y-1429890D01*
X18127820Y-1304951D01*
X17938414Y-1208444D01*
X17938413Y-1208443D01*
X17938412Y-1208443D01*
X17736243Y-1142754D01*
X17736241Y-1142753D01*
X17736240Y-1142753D01*
X17574957Y-1117208D01*
X17526287Y-1109500D01*
X17313713Y-1109500D01*
X17265042Y-1117208D01*
X17103760Y-1142753D01*
X16901585Y-1208444D01*
X16712179Y-1304951D01*
X16540213Y-1429890D01*
X16389890Y-1580213D01*
X16264949Y-1752182D01*
X16260202Y-1761499D01*
X16212227Y-1812293D01*
X16144405Y-1829087D01*
X16078271Y-1806548D01*
X16039234Y-1761495D01*
X16034626Y-1752452D01*
X15995270Y-1698282D01*
X15995269Y-1698282D01*
X15362962Y-2330590D01*
X15345925Y-2267007D01*
X15280099Y-2152993D01*
X15187007Y-2059901D01*
X15072993Y-1994075D01*
X15009409Y-1977037D01*
X15641716Y-1344728D01*
X15587550Y-1305375D01*
X15398217Y-1208904D01*
X15196129Y-1143242D01*
X14986246Y-1110000D01*
X14773754Y-1110000D01*
X14563872Y-1143242D01*
X14563869Y-1143242D01*
X14361782Y-1208904D01*
X14172439Y-1305380D01*
X14118282Y-1344727D01*
X14118282Y-1344728D01*
X14750591Y-1977037D01*
X14687007Y-1994075D01*
X14572993Y-2059901D01*
X14479901Y-2152993D01*
X14414075Y-2267007D01*
X14397037Y-2330591D01*
X13764728Y-1698282D01*
X13764727Y-1698282D01*
X13725380Y-1752440D01*
X13725376Y-1752446D01*
X13720760Y-1761505D01*
X13672781Y-1812297D01*
X13604959Y-1829087D01*
X13538826Y-1806543D01*
X13499794Y-1761493D01*
X13495051Y-1752184D01*
X13495049Y-1752181D01*
X13495048Y-1752179D01*
X13370109Y-1580213D01*
X13219786Y-1429890D01*
X13047820Y-1304951D01*
X12858414Y-1208444D01*
X12858413Y-1208443D01*
X12858412Y-1208443D01*
X12656243Y-1142754D01*
X12656241Y-1142753D01*
X12656240Y-1142753D01*
X12494957Y-1117208D01*
X12446287Y-1109500D01*
X12233713Y-1109500D01*
X12185042Y-1117208D01*
X12023760Y-1142753D01*
X11821585Y-1208444D01*
X11632179Y-1304951D01*
X11460213Y-1429890D01*
X11309890Y-1580213D01*
X11184949Y-1752182D01*
X11180484Y-1760946D01*
X11132509Y-1811742D01*
X11064688Y-1828536D01*
X10998553Y-1805998D01*
X10959516Y-1760946D01*
X10955050Y-1752182D01*
X10830109Y-1580213D01*
X10679786Y-1429890D01*
X10507820Y-1304951D01*
X10318414Y-1208444D01*
X10318413Y-1208443D01*
X10318412Y-1208443D01*
X10116243Y-1142754D01*
X10116241Y-1142753D01*
X10116240Y-1142753D01*
X9954957Y-1117208D01*
X9906287Y-1109500D01*
X9693713Y-1109500D01*
X9645042Y-1117208D01*
X9483760Y-1142753D01*
X9281585Y-1208444D01*
X9092179Y-1304951D01*
X8920213Y-1429890D01*
X8769890Y-1580213D01*
X8644951Y-1752179D01*
X8548444Y-1941585D01*
X8482753Y-2143760D01*
X8449500Y-2353713D01*
X8449500Y-2566287D01*
X8482754Y-2776243D01*
X8518293Y-2885621D01*
X8548444Y-2978414D01*
X8644951Y-3167820D01*
X8769890Y-3339786D01*
X8883430Y-3453326D01*
X8916915Y-3514649D01*
X8911931Y-3584341D01*
X8870059Y-3640274D01*
X8839083Y-3657189D01*
X8707669Y-3706203D01*
X8707664Y-3706206D01*
X8592455Y-3792452D01*
X8592452Y-3792455D01*
X8506206Y-3907664D01*
X8506202Y-3907671D01*
X8455908Y-4042517D01*
X8449501Y-4102116D01*
X8449500Y-4102135D01*
X8449500Y-5897870D01*
X8449501Y-5897876D01*
X8455908Y-5957483D01*
X8506202Y-6092328D01*
X8506206Y-6092335D01*
X8592452Y-6207544D01*
X8592455Y-6207547D01*
X8707664Y-6293793D01*
X8707671Y-6293797D01*
X8842517Y-6344091D01*
X8842516Y-6344091D01*
X8849444Y-6344835D01*
X8902127Y-6350500D01*
X10697872Y-6350499D01*
X10757483Y-6344091D01*
X10892331Y-6293796D01*
X11007546Y-6207546D01*
X11093796Y-6092331D01*
X11142810Y-5960916D01*
X11184681Y-5904984D01*
X11250145Y-5880566D01*
X11318418Y-5895417D01*
X11346673Y-5916569D01*
X11460213Y-6030109D01*
X11632179Y-6155048D01*
X11632181Y-6155049D01*
X11632184Y-6155051D01*
X11821588Y-6251557D01*
X12023757Y-6317246D01*
X12233713Y-6350500D01*
X12233714Y-6350500D01*
X12446286Y-6350500D01*
X12446287Y-6350500D01*
X12656243Y-6317246D01*
X12858412Y-6251557D01*
X13047816Y-6155051D01*
X13134138Y-6092335D01*
X13219786Y-6030109D01*
X13219788Y-6030106D01*
X13219792Y-6030104D01*
X13370104Y-5879792D01*
X13370106Y-5879788D01*
X13370109Y-5879786D01*
X13495048Y-5707820D01*
X13495047Y-5707820D01*
X13495051Y-5707816D01*
X13499514Y-5699054D01*
X13547488Y-5648259D01*
X13615308Y-5631463D01*
X13681444Y-5653999D01*
X13720486Y-5699056D01*
X13724951Y-5707820D01*
X13849890Y-5879786D01*
X14000213Y-6030109D01*
X14172179Y-6155048D01*
X14172181Y-6155049D01*
X14172184Y-6155051D01*
X14361588Y-6251557D01*
X14563757Y-6317246D01*
X14773713Y-6350500D01*
X14773714Y-6350500D01*
X14986286Y-6350500D01*
X14986287Y-6350500D01*
X15196243Y-6317246D01*
X15398412Y-6251557D01*
X15587816Y-6155051D01*
X15674138Y-6092335D01*
X15759786Y-6030109D01*
X15759788Y-6030106D01*
X15759792Y-6030104D01*
X15910104Y-5879792D01*
X15910106Y-5879788D01*
X15910109Y-5879786D01*
X16035048Y-5707820D01*
X16035047Y-5707820D01*
X16035051Y-5707816D01*
X16039514Y-5699054D01*
X16087488Y-5648259D01*
X16155308Y-5631463D01*
X16221444Y-5653999D01*
X16260486Y-5699056D01*
X16264951Y-5707820D01*
X16389890Y-5879786D01*
X16540213Y-6030109D01*
X16712179Y-6155048D01*
X16712181Y-6155049D01*
X16712184Y-6155051D01*
X16901588Y-6251557D01*
X17103757Y-6317246D01*
X17313713Y-6350500D01*
X17313714Y-6350500D01*
X17526286Y-6350500D01*
X17526287Y-6350500D01*
X17736243Y-6317246D01*
X17938412Y-6251557D01*
X18127816Y-6155051D01*
X18214138Y-6092335D01*
X18299786Y-6030109D01*
X18299788Y-6030106D01*
X18299792Y-6030104D01*
X18450104Y-5879792D01*
X18450106Y-5879788D01*
X18450109Y-5879786D01*
X18535890Y-5761717D01*
X18575051Y-5707816D01*
X18579793Y-5698508D01*
X18627763Y-5647711D01*
X18695583Y-5630911D01*
X18761719Y-5653445D01*
X18800763Y-5698500D01*
X18805373Y-5707547D01*
X18844728Y-5761716D01*
X19477037Y-5129408D01*
X19494075Y-5192993D01*
X19559901Y-5307007D01*
X19652993Y-5400099D01*
X19767007Y-5465925D01*
X19830590Y-5482962D01*
X19198282Y-6115269D01*
X19198282Y-6115270D01*
X19252449Y-6154624D01*
X19441782Y-6251095D01*
X19643870Y-6316757D01*
X19853754Y-6350000D01*
X20066246Y-6350000D01*
X20276127Y-6316757D01*
X20276130Y-6316757D01*
X20478217Y-6251095D01*
X20667554Y-6154622D01*
X20721716Y-6115270D01*
X20721717Y-6115270D01*
X20089408Y-5482962D01*
X20152993Y-5465925D01*
X20267007Y-5400099D01*
X20360099Y-5307007D01*
X20425925Y-5192993D01*
X20442962Y-5129409D01*
X21075270Y-5761717D01*
X21075270Y-5761716D01*
X21114622Y-5707555D01*
X21119232Y-5698507D01*
X21122423Y-5695127D01*
X21123611Y-5690633D01*
X21146186Y-5669965D01*
X21167205Y-5647709D01*
X21171718Y-5646591D01*
X21175146Y-5643453D01*
X21205311Y-5638271D01*
X21235025Y-5630912D01*
X21239424Y-5632411D01*
X21244007Y-5631624D01*
X21272190Y-5643575D01*
X21301161Y-5653447D01*
X21305241Y-5657591D01*
X21308332Y-5658902D01*
X21316387Y-5668911D01*
X21332164Y-5684934D01*
X21336617Y-5691464D01*
X21344949Y-5707816D01*
X21390909Y-5771076D01*
X21391945Y-5772594D01*
X21402149Y-5804133D01*
X21413298Y-5835378D01*
X21413398Y-5838899D01*
X21413454Y-5839071D01*
X21413408Y-5839243D01*
X21413500Y-5842458D01*
X21413500Y-20387064D01*
X21393815Y-20454103D01*
X21392603Y-20455954D01*
X21354608Y-20512817D01*
X21354602Y-20512828D01*
X21294264Y-20658498D01*
X21294261Y-20658510D01*
X21263500Y-20813153D01*
X21263500Y-20970846D01*
X21294261Y-21125489D01*
X21294264Y-21125501D01*
X21354602Y-21271172D01*
X21354609Y-21271185D01*
X21442210Y-21402288D01*
X21442213Y-21402292D01*
X21553707Y-21513786D01*
X21553711Y-21513789D01*
X21684814Y-21601390D01*
X21684827Y-21601397D01*
X21830498Y-21661735D01*
X21830503Y-21661737D01*
X21985153Y-21692499D01*
X21985156Y-21692500D01*
X21985158Y-21692500D01*
X22142844Y-21692500D01*
X22142845Y-21692499D01*
X22297497Y-21661737D01*
X22443179Y-21601394D01*
X22574289Y-21513789D01*
X22685789Y-21402289D01*
X22773394Y-21271179D01*
X22833737Y-21125497D01*
X22864500Y-20970842D01*
X22864500Y-20813158D01*
X22864500Y-20813155D01*
X22864499Y-20813153D01*
X22833738Y-20658510D01*
X22833737Y-20658503D01*
X22773394Y-20512821D01*
X22735396Y-20455953D01*
X22714520Y-20389276D01*
X22714500Y-20387064D01*
X22714500Y-6439266D01*
X22734185Y-6372227D01*
X22786989Y-6326472D01*
X22811673Y-6319032D01*
X22811517Y-6318380D01*
X22816230Y-6317248D01*
X22816243Y-6317246D01*
X23018412Y-6251557D01*
X23207816Y-6155051D01*
X23294138Y-6092335D01*
X23379786Y-6030109D01*
X23379788Y-6030106D01*
X23379792Y-6030104D01*
X23530104Y-5879792D01*
X23530106Y-5879788D01*
X23530109Y-5879786D01*
X23655048Y-5707820D01*
X23655047Y-5707820D01*
X23655051Y-5707816D01*
X23659514Y-5699054D01*
X23707488Y-5648259D01*
X23775308Y-5631463D01*
X23841444Y-5653999D01*
X23880486Y-5699056D01*
X23884951Y-5707820D01*
X24009890Y-5879786D01*
X24160213Y-6030109D01*
X24332179Y-6155048D01*
X24332181Y-6155049D01*
X24332184Y-6155051D01*
X24521588Y-6251557D01*
X24723757Y-6317246D01*
X24933713Y-6350500D01*
X24933714Y-6350500D01*
X25146286Y-6350500D01*
X25146287Y-6350500D01*
X25356243Y-6317246D01*
X25558412Y-6251557D01*
X25747816Y-6155051D01*
X25834138Y-6092335D01*
X25919786Y-6030109D01*
X25919788Y-6030106D01*
X25919792Y-6030104D01*
X26070104Y-5879792D01*
X26070106Y-5879788D01*
X26070109Y-5879786D01*
X26195048Y-5707820D01*
X26195047Y-5707820D01*
X26195051Y-5707816D01*
X26199514Y-5699054D01*
X26247488Y-5648259D01*
X26315308Y-5631463D01*
X26381444Y-5653999D01*
X26420486Y-5699056D01*
X26424951Y-5707820D01*
X26549890Y-5879786D01*
X26700213Y-6030109D01*
X26872179Y-6155048D01*
X26872181Y-6155049D01*
X26872184Y-6155051D01*
X27061588Y-6251557D01*
X27263757Y-6317246D01*
X27473713Y-6350500D01*
X27473714Y-6350500D01*
X27686286Y-6350500D01*
X27686287Y-6350500D01*
X27896243Y-6317246D01*
X28037185Y-6271450D01*
X28107022Y-6269456D01*
X28166855Y-6305536D01*
X28197684Y-6368237D01*
X28199500Y-6389382D01*
X28199500Y-30769591D01*
X28179815Y-30836630D01*
X28163181Y-30857272D01*
X24916268Y-34104184D01*
X24854945Y-34137669D01*
X24852779Y-34138120D01*
X24785708Y-34151461D01*
X24785698Y-34151464D01*
X24640027Y-34211802D01*
X24640014Y-34211809D01*
X24508911Y-34299410D01*
X24508907Y-34299413D01*
X24397413Y-34410907D01*
X24397410Y-34410911D01*
X24309809Y-34542014D01*
X24309802Y-34542027D01*
X24249464Y-34687698D01*
X24249461Y-34687710D01*
X24218700Y-34842353D01*
X24218700Y-35000046D01*
X24249461Y-35154689D01*
X24249464Y-35154701D01*
X24309802Y-35300372D01*
X24309809Y-35300385D01*
X24397410Y-35431488D01*
X24397413Y-35431492D01*
X24508907Y-35542986D01*
X24508911Y-35542989D01*
X24640014Y-35630590D01*
X24640027Y-35630597D01*
X24729893Y-35667820D01*
X24785703Y-35690937D01*
X24940353Y-35721699D01*
X24940356Y-35721700D01*
X24940358Y-35721700D01*
X25098044Y-35721700D01*
X25098045Y-35721699D01*
X25252697Y-35690937D01*
X25398379Y-35630594D01*
X25529489Y-35542989D01*
X25640989Y-35431489D01*
X25728594Y-35300379D01*
X25788937Y-35154697D01*
X25802279Y-35087616D01*
X25834663Y-35025709D01*
X25836159Y-35024185D01*
X29355276Y-31505070D01*
X29426465Y-31398527D01*
X29475501Y-31280144D01*
X29487177Y-31221447D01*
X29500500Y-31154471D01*
X29500500Y-6389382D01*
X29520185Y-6322343D01*
X29572989Y-6276588D01*
X29642147Y-6266644D01*
X29662805Y-6271447D01*
X29803757Y-6317246D01*
X30013713Y-6350500D01*
X30013714Y-6350500D01*
X30226286Y-6350500D01*
X30226287Y-6350500D01*
X30436243Y-6317246D01*
X30638412Y-6251557D01*
X30827816Y-6155051D01*
X30914138Y-6092335D01*
X30999786Y-6030109D01*
X30999788Y-6030106D01*
X30999792Y-6030104D01*
X31150104Y-5879792D01*
X31150106Y-5879788D01*
X31150109Y-5879786D01*
X31275048Y-5707820D01*
X31275047Y-5707820D01*
X31275051Y-5707816D01*
X31279514Y-5699054D01*
X31327488Y-5648259D01*
X31395308Y-5631463D01*
X31461444Y-5653999D01*
X31500486Y-5699056D01*
X31504951Y-5707820D01*
X31629890Y-5879786D01*
X31780213Y-6030109D01*
X31952179Y-6155048D01*
X31952181Y-6155049D01*
X31952184Y-6155051D01*
X32141588Y-6251557D01*
X32343757Y-6317246D01*
X32553713Y-6350500D01*
X32553714Y-6350500D01*
X32766286Y-6350500D01*
X32766287Y-6350500D01*
X32976243Y-6317246D01*
X33117185Y-6271450D01*
X33187022Y-6269456D01*
X33246855Y-6305536D01*
X33277684Y-6368237D01*
X33279500Y-6389382D01*
X33279500Y-34490491D01*
X33259815Y-34557530D01*
X33243181Y-34578172D01*
X30826668Y-36994684D01*
X30765345Y-37028169D01*
X30763179Y-37028620D01*
X30696108Y-37041961D01*
X30696098Y-37041964D01*
X30550427Y-37102302D01*
X30550414Y-37102309D01*
X30419311Y-37189910D01*
X30419307Y-37189913D01*
X30307813Y-37301407D01*
X30307810Y-37301411D01*
X30220209Y-37432514D01*
X30220202Y-37432527D01*
X30159864Y-37578198D01*
X30159861Y-37578210D01*
X30129100Y-37732853D01*
X30129100Y-37890546D01*
X30159861Y-38045189D01*
X30159864Y-38045201D01*
X30220202Y-38190872D01*
X30220209Y-38190885D01*
X30307810Y-38321988D01*
X30307813Y-38321992D01*
X30419307Y-38433486D01*
X30419311Y-38433489D01*
X30550414Y-38521090D01*
X30550427Y-38521097D01*
X30696098Y-38581435D01*
X30696103Y-38581437D01*
X30850753Y-38612199D01*
X30850756Y-38612200D01*
X30850758Y-38612200D01*
X31008444Y-38612200D01*
X31008445Y-38612199D01*
X31163097Y-38581437D01*
X31308779Y-38521094D01*
X31439889Y-38433489D01*
X31551389Y-38321989D01*
X31638994Y-38190879D01*
X31699337Y-38045197D01*
X31712679Y-37978116D01*
X31745063Y-37916209D01*
X31746559Y-37914685D01*
X34435276Y-35225970D01*
X34506465Y-35119427D01*
X34534499Y-35051746D01*
X34578340Y-34997344D01*
X34644634Y-34975279D01*
X34649060Y-34975200D01*
X34800044Y-34975200D01*
X34800045Y-34975199D01*
X34954697Y-34944437D01*
X35100379Y-34884094D01*
X35231489Y-34796489D01*
X35342989Y-34684989D01*
X35430594Y-34553879D01*
X35490937Y-34408197D01*
X35504279Y-34341116D01*
X35536663Y-34279209D01*
X35538158Y-34277686D01*
X36975277Y-32840569D01*
X37046465Y-32734027D01*
X37095501Y-32615643D01*
X37096675Y-32609744D01*
X37120500Y-32489969D01*
X37120500Y-6389382D01*
X37140185Y-6322343D01*
X37192989Y-6276588D01*
X37262147Y-6266644D01*
X37282805Y-6271447D01*
X37423757Y-6317246D01*
X37633713Y-6350500D01*
X37633714Y-6350500D01*
X37846286Y-6350500D01*
X37846287Y-6350500D01*
X38056243Y-6317246D01*
X38258412Y-6251557D01*
X38447816Y-6155051D01*
X38534138Y-6092335D01*
X38619786Y-6030109D01*
X38619788Y-6030106D01*
X38619792Y-6030104D01*
X38770104Y-5879792D01*
X38770106Y-5879788D01*
X38770109Y-5879786D01*
X38855890Y-5761717D01*
X38895051Y-5707816D01*
X38899793Y-5698508D01*
X38947763Y-5647711D01*
X39015583Y-5630911D01*
X39081719Y-5653445D01*
X39120763Y-5698500D01*
X39125373Y-5707547D01*
X39164728Y-5761716D01*
X39797037Y-5129408D01*
X39814075Y-5192993D01*
X39879901Y-5307007D01*
X39972993Y-5400099D01*
X40087007Y-5465925D01*
X40150590Y-5482962D01*
X39518282Y-6115269D01*
X39518282Y-6115270D01*
X39572449Y-6154624D01*
X39761782Y-6251095D01*
X39963870Y-6316757D01*
X40173754Y-6350000D01*
X40386246Y-6350000D01*
X40596127Y-6316757D01*
X40596130Y-6316757D01*
X40798217Y-6251095D01*
X40987554Y-6154622D01*
X41041716Y-6115270D01*
X41041717Y-6115270D01*
X40409408Y-5482962D01*
X40472993Y-5465925D01*
X40587007Y-5400099D01*
X40680099Y-5307007D01*
X40745925Y-5192993D01*
X40762962Y-5129408D01*
X41395270Y-5761717D01*
X41395270Y-5761716D01*
X41434622Y-5707555D01*
X41439232Y-5698507D01*
X41487205Y-5647709D01*
X41555025Y-5630912D01*
X41621161Y-5653447D01*
X41660204Y-5698504D01*
X41664949Y-5707817D01*
X41789890Y-5879786D01*
X41940213Y-6030109D01*
X42112179Y-6155048D01*
X42112181Y-6155049D01*
X42112184Y-6155051D01*
X42301588Y-6251557D01*
X42503757Y-6317246D01*
X42713713Y-6350500D01*
X42713714Y-6350500D01*
X42926286Y-6350500D01*
X42926287Y-6350500D01*
X43136243Y-6317246D01*
X43338412Y-6251557D01*
X43527816Y-6155051D01*
X43614138Y-6092335D01*
X43699786Y-6030109D01*
X43699788Y-6030106D01*
X43699792Y-6030104D01*
X43850104Y-5879792D01*
X43850106Y-5879788D01*
X43850109Y-5879786D01*
X43975048Y-5707820D01*
X43975047Y-5707820D01*
X43975051Y-5707816D01*
X43979514Y-5699054D01*
X44027488Y-5648259D01*
X44095308Y-5631463D01*
X44161444Y-5653999D01*
X44200486Y-5699056D01*
X44204951Y-5707820D01*
X44329890Y-5879786D01*
X44480213Y-6030109D01*
X44652179Y-6155048D01*
X44652181Y-6155049D01*
X44652184Y-6155051D01*
X44841588Y-6251557D01*
X45043757Y-6317246D01*
X45253713Y-6350500D01*
X45253714Y-6350500D01*
X45466286Y-6350500D01*
X45466287Y-6350500D01*
X45676243Y-6317246D01*
X45878412Y-6251557D01*
X46067816Y-6155051D01*
X46154138Y-6092335D01*
X46239786Y-6030109D01*
X46239788Y-6030106D01*
X46239792Y-6030104D01*
X46390104Y-5879792D01*
X46390106Y-5879788D01*
X46390109Y-5879786D01*
X46515048Y-5707820D01*
X46515047Y-5707820D01*
X46515051Y-5707816D01*
X46519514Y-5699054D01*
X46567488Y-5648259D01*
X46635308Y-5631463D01*
X46701444Y-5653999D01*
X46740486Y-5699056D01*
X46744951Y-5707820D01*
X46869890Y-5879786D01*
X47020213Y-6030109D01*
X47192179Y-6155048D01*
X47192181Y-6155049D01*
X47192184Y-6155051D01*
X47381588Y-6251557D01*
X47583757Y-6317246D01*
X47793713Y-6350500D01*
X47793714Y-6350500D01*
X48006286Y-6350500D01*
X48006287Y-6350500D01*
X48216243Y-6317246D01*
X48418412Y-6251557D01*
X48607816Y-6155051D01*
X48694138Y-6092335D01*
X48779786Y-6030109D01*
X48779788Y-6030106D01*
X48779792Y-6030104D01*
X48930104Y-5879792D01*
X48930106Y-5879788D01*
X48930109Y-5879786D01*
X49055048Y-5707820D01*
X49055047Y-5707820D01*
X49055051Y-5707816D01*
X49059514Y-5699054D01*
X49107488Y-5648259D01*
X49175308Y-5631463D01*
X49241444Y-5653999D01*
X49280486Y-5699056D01*
X49284951Y-5707820D01*
X49409890Y-5879786D01*
X49560213Y-6030109D01*
X49732179Y-6155048D01*
X49732181Y-6155049D01*
X49732184Y-6155051D01*
X49921588Y-6251557D01*
X50123757Y-6317246D01*
X50333713Y-6350500D01*
X50333714Y-6350500D01*
X50546286Y-6350500D01*
X50546287Y-6350500D01*
X50756243Y-6317246D01*
X50958412Y-6251557D01*
X51147816Y-6155051D01*
X51234138Y-6092335D01*
X51319786Y-6030109D01*
X51319788Y-6030106D01*
X51319792Y-6030104D01*
X51470104Y-5879792D01*
X51470106Y-5879788D01*
X51470109Y-5879786D01*
X51595048Y-5707820D01*
X51595047Y-5707820D01*
X51595051Y-5707816D01*
X51599514Y-5699054D01*
X51647488Y-5648259D01*
X51715308Y-5631463D01*
X51781444Y-5653999D01*
X51820486Y-5699056D01*
X51824951Y-5707820D01*
X51949890Y-5879786D01*
X52100213Y-6030109D01*
X52272179Y-6155048D01*
X52272181Y-6155049D01*
X52272184Y-6155051D01*
X52461588Y-6251557D01*
X52663757Y-6317246D01*
X52873713Y-6350500D01*
X52873714Y-6350500D01*
X53086286Y-6350500D01*
X53086287Y-6350500D01*
X53296243Y-6317246D01*
X53498412Y-6251557D01*
X53687816Y-6155051D01*
X53774138Y-6092335D01*
X53859786Y-6030109D01*
X53859788Y-6030106D01*
X53859792Y-6030104D01*
X54010104Y-5879792D01*
X54010106Y-5879788D01*
X54010109Y-5879786D01*
X54135048Y-5707820D01*
X54135047Y-5707820D01*
X54135051Y-5707816D01*
X54139514Y-5699054D01*
X54187488Y-5648259D01*
X54255308Y-5631463D01*
X54321444Y-5653999D01*
X54360486Y-5699056D01*
X54364951Y-5707820D01*
X54489890Y-5879786D01*
X54640213Y-6030109D01*
X54812179Y-6155048D01*
X54812181Y-6155049D01*
X54812184Y-6155051D01*
X55001588Y-6251557D01*
X55203757Y-6317246D01*
X55413713Y-6350500D01*
X55413714Y-6350500D01*
X55626286Y-6350500D01*
X55626287Y-6350500D01*
X55836243Y-6317246D01*
X56038412Y-6251557D01*
X56227816Y-6155051D01*
X56314138Y-6092335D01*
X56399786Y-6030109D01*
X56399788Y-6030106D01*
X56399792Y-6030104D01*
X56550104Y-5879792D01*
X56550106Y-5879788D01*
X56550109Y-5879786D01*
X56635890Y-5761717D01*
X56675051Y-5707816D01*
X56679793Y-5698508D01*
X56727763Y-5647711D01*
X56795583Y-5630911D01*
X56861719Y-5653445D01*
X56900763Y-5698500D01*
X56905373Y-5707547D01*
X56944728Y-5761716D01*
X57577037Y-5129408D01*
X57594075Y-5192993D01*
X57659901Y-5307007D01*
X57752993Y-5400099D01*
X57867007Y-5465925D01*
X57930590Y-5482962D01*
X57298282Y-6115269D01*
X57298282Y-6115270D01*
X57352449Y-6154624D01*
X57541782Y-6251095D01*
X57743870Y-6316757D01*
X57953754Y-6350000D01*
X58166246Y-6350000D01*
X58376127Y-6316757D01*
X58376130Y-6316757D01*
X58578217Y-6251095D01*
X58767554Y-6154622D01*
X58821716Y-6115270D01*
X58821717Y-6115270D01*
X58189408Y-5482962D01*
X58252993Y-5465925D01*
X58367007Y-5400099D01*
X58460099Y-5307007D01*
X58525925Y-5192993D01*
X58542962Y-5129408D01*
X59175270Y-5761717D01*
X59175270Y-5761716D01*
X59214622Y-5707554D01*
X59311095Y-5518217D01*
X59376757Y-5316130D01*
X59376757Y-5316127D01*
X59410000Y-5106246D01*
X59410000Y-4893753D01*
X59376757Y-4683872D01*
X59376757Y-4683869D01*
X59311095Y-4481782D01*
X59214624Y-4292449D01*
X59175270Y-4238282D01*
X59175269Y-4238282D01*
X58542962Y-4870590D01*
X58525925Y-4807007D01*
X58460099Y-4692993D01*
X58367007Y-4599901D01*
X58252993Y-4534075D01*
X58189409Y-4517037D01*
X58805111Y-3901334D01*
X58779546Y-3874038D01*
X62899500Y-3874038D01*
X62899500Y-4125962D01*
X62933218Y-4338845D01*
X62938910Y-4374785D01*
X63016760Y-4614383D01*
X63131132Y-4838848D01*
X63279201Y-5042649D01*
X63279205Y-5042654D01*
X63457345Y-5220794D01*
X63457350Y-5220798D01*
X63588560Y-5316127D01*
X63661155Y-5368870D01*
X63804184Y-5441747D01*
X63885616Y-5483239D01*
X63885618Y-5483239D01*
X63885621Y-5483241D01*
X64125215Y-5561090D01*
X64374038Y-5600500D01*
X64374039Y-5600500D01*
X64625961Y-5600500D01*
X64625962Y-5600500D01*
X64874785Y-5561090D01*
X65114379Y-5483241D01*
X65338845Y-5368870D01*
X65542656Y-5220793D01*
X65720793Y-5042656D01*
X65868870Y-4838845D01*
X65983241Y-4614379D01*
X66061090Y-4374785D01*
X66100500Y-4125962D01*
X66100500Y-3874038D01*
X66061090Y-3625215D01*
X65983241Y-3385621D01*
X65983239Y-3385618D01*
X65983239Y-3385616D01*
X65941747Y-3304184D01*
X65868870Y-3161155D01*
X65817835Y-3090911D01*
X65720798Y-2957350D01*
X65720794Y-2957345D01*
X65542654Y-2779205D01*
X65542649Y-2779201D01*
X65338848Y-2631132D01*
X65338847Y-2631131D01*
X65338845Y-2631130D01*
X65268747Y-2595413D01*
X65114383Y-2516760D01*
X64874785Y-2438910D01*
X64625962Y-2399500D01*
X64374038Y-2399500D01*
X64249626Y-2419205D01*
X64125214Y-2438910D01*
X63885616Y-2516760D01*
X63661151Y-2631132D01*
X63457350Y-2779201D01*
X63457345Y-2779205D01*
X63279205Y-2957345D01*
X63279201Y-2957350D01*
X63131132Y-3161151D01*
X63016760Y-3385616D01*
X62938910Y-3625214D01*
X62908844Y-3815044D01*
X62899500Y-3874038D01*
X58779546Y-3874038D01*
X58724294Y-3815044D01*
X58717949Y-3802463D01*
X58707706Y-3792788D01*
X58702530Y-3771885D01*
X58692834Y-3752658D01*
X58694298Y-3738643D01*
X58690912Y-3724966D01*
X58697858Y-3704583D01*
X58700097Y-3683167D01*
X58708905Y-3672170D01*
X58713451Y-3658832D01*
X58733508Y-3641453D01*
X58743777Y-3628634D01*
X58751174Y-3626147D01*
X58758508Y-3619793D01*
X58767816Y-3615051D01*
X58870763Y-3540256D01*
X58939786Y-3490109D01*
X58939788Y-3490106D01*
X58939792Y-3490104D01*
X59090104Y-3339792D01*
X59090106Y-3339788D01*
X59090109Y-3339786D01*
X59215048Y-3167820D01*
X59215047Y-3167820D01*
X59215051Y-3167816D01*
X59311557Y-2978412D01*
X59377246Y-2776243D01*
X59410500Y-2566287D01*
X59410500Y-2353713D01*
X59377246Y-2143757D01*
X59311557Y-1941588D01*
X59215051Y-1752184D01*
X59215049Y-1752181D01*
X59215048Y-1752179D01*
X59090109Y-1580213D01*
X58939786Y-1429890D01*
X58767820Y-1304951D01*
X58578414Y-1208444D01*
X58578413Y-1208443D01*
X58578412Y-1208443D01*
X58376243Y-1142754D01*
X58376241Y-1142753D01*
X58376240Y-1142753D01*
X58214957Y-1117208D01*
X58166287Y-1109500D01*
X57953713Y-1109500D01*
X57905042Y-1117208D01*
X57743760Y-1142753D01*
X57541585Y-1208444D01*
X57352179Y-1304951D01*
X57180213Y-1429890D01*
X57029890Y-1580213D01*
X56904949Y-1752182D01*
X56900484Y-1760946D01*
X56852509Y-1811742D01*
X56784688Y-1828536D01*
X56718553Y-1805998D01*
X56679516Y-1760946D01*
X56675050Y-1752182D01*
X56550109Y-1580213D01*
X56399786Y-1429890D01*
X56227820Y-1304951D01*
X56038414Y-1208444D01*
X56038413Y-1208443D01*
X56038412Y-1208443D01*
X55836243Y-1142754D01*
X55836241Y-1142753D01*
X55836240Y-1142753D01*
X55674957Y-1117208D01*
X55626287Y-1109500D01*
X55413713Y-1109500D01*
X55365042Y-1117208D01*
X55203760Y-1142753D01*
X55001585Y-1208444D01*
X54812179Y-1304951D01*
X54640213Y-1429890D01*
X54489890Y-1580213D01*
X54364949Y-1752182D01*
X54360484Y-1760946D01*
X54312509Y-1811742D01*
X54244688Y-1828536D01*
X54178553Y-1805998D01*
X54139516Y-1760946D01*
X54135050Y-1752182D01*
X54010109Y-1580213D01*
X53859786Y-1429890D01*
X53687820Y-1304951D01*
X53498414Y-1208444D01*
X53498413Y-1208443D01*
X53498412Y-1208443D01*
X53296243Y-1142754D01*
X53296241Y-1142753D01*
X53296240Y-1142753D01*
X53134957Y-1117208D01*
X53086287Y-1109500D01*
X52873713Y-1109500D01*
X52825042Y-1117208D01*
X52663760Y-1142753D01*
X52461585Y-1208444D01*
X52272179Y-1304951D01*
X52100213Y-1429890D01*
X51949890Y-1580213D01*
X51824949Y-1752182D01*
X51820202Y-1761499D01*
X51772227Y-1812293D01*
X51704405Y-1829087D01*
X51638271Y-1806548D01*
X51599234Y-1761495D01*
X51594626Y-1752452D01*
X51555270Y-1698282D01*
X51555269Y-1698282D01*
X50922962Y-2330590D01*
X50905925Y-2267007D01*
X50840099Y-2152993D01*
X50747007Y-2059901D01*
X50632993Y-1994075D01*
X50569409Y-1977037D01*
X51201716Y-1344728D01*
X51147550Y-1305375D01*
X50958217Y-1208904D01*
X50756129Y-1143242D01*
X50546246Y-1110000D01*
X50333754Y-1110000D01*
X50123872Y-1143242D01*
X50123869Y-1143242D01*
X49921782Y-1208904D01*
X49732439Y-1305380D01*
X49678282Y-1344727D01*
X49678282Y-1344728D01*
X50310591Y-1977037D01*
X50247007Y-1994075D01*
X50132993Y-2059901D01*
X50039901Y-2152993D01*
X49974075Y-2267007D01*
X49957037Y-2330591D01*
X49324728Y-1698282D01*
X49324727Y-1698282D01*
X49285380Y-1752440D01*
X49285376Y-1752446D01*
X49280760Y-1761505D01*
X49232781Y-1812297D01*
X49164959Y-1829087D01*
X49098826Y-1806543D01*
X49059794Y-1761493D01*
X49055051Y-1752184D01*
X49055049Y-1752181D01*
X49055048Y-1752179D01*
X48930109Y-1580213D01*
X48779786Y-1429890D01*
X48607820Y-1304951D01*
X48418414Y-1208444D01*
X48418413Y-1208443D01*
X48418412Y-1208443D01*
X48216243Y-1142754D01*
X48216241Y-1142753D01*
X48216240Y-1142753D01*
X48054957Y-1117208D01*
X48006287Y-1109500D01*
X47793713Y-1109500D01*
X47745042Y-1117208D01*
X47583760Y-1142753D01*
X47381585Y-1208444D01*
X47192179Y-1304951D01*
X47020213Y-1429890D01*
X46869890Y-1580213D01*
X46744949Y-1752182D01*
X46740202Y-1761499D01*
X46692227Y-1812293D01*
X46624405Y-1829087D01*
X46558271Y-1806548D01*
X46519234Y-1761495D01*
X46514626Y-1752452D01*
X46475270Y-1698282D01*
X46475269Y-1698282D01*
X45842962Y-2330590D01*
X45825925Y-2267007D01*
X45760099Y-2152993D01*
X45667007Y-2059901D01*
X45552993Y-1994075D01*
X45489409Y-1977037D01*
X46121716Y-1344728D01*
X46067550Y-1305375D01*
X45878217Y-1208904D01*
X45676129Y-1143242D01*
X45466246Y-1110000D01*
X45253754Y-1110000D01*
X45043872Y-1143242D01*
X45043869Y-1143242D01*
X44841782Y-1208904D01*
X44652439Y-1305380D01*
X44598282Y-1344727D01*
X44598282Y-1344728D01*
X45230591Y-1977037D01*
X45167007Y-1994075D01*
X45052993Y-2059901D01*
X44959901Y-2152993D01*
X44894075Y-2267007D01*
X44877037Y-2330591D01*
X44244728Y-1698282D01*
X44244727Y-1698282D01*
X44205380Y-1752440D01*
X44205376Y-1752446D01*
X44200760Y-1761505D01*
X44152781Y-1812297D01*
X44084959Y-1829087D01*
X44018826Y-1806543D01*
X43979794Y-1761493D01*
X43975051Y-1752184D01*
X43975049Y-1752181D01*
X43975048Y-1752179D01*
X43850109Y-1580213D01*
X43699786Y-1429890D01*
X43527820Y-1304951D01*
X43338414Y-1208444D01*
X43338413Y-1208443D01*
X43338412Y-1208443D01*
X43136243Y-1142754D01*
X43136241Y-1142753D01*
X43136240Y-1142753D01*
X42974957Y-1117208D01*
X42926287Y-1109500D01*
X42713713Y-1109500D01*
X42665042Y-1117208D01*
X42503760Y-1142753D01*
X42301585Y-1208444D01*
X42112179Y-1304951D01*
X41940213Y-1429890D01*
X41789890Y-1580213D01*
X41664949Y-1752182D01*
X41660484Y-1760946D01*
X41612509Y-1811742D01*
X41544688Y-1828536D01*
X41478553Y-1805998D01*
X41439516Y-1760946D01*
X41435050Y-1752182D01*
X41310109Y-1580213D01*
X41159786Y-1429890D01*
X40987820Y-1304951D01*
X40798414Y-1208444D01*
X40798413Y-1208443D01*
X40798412Y-1208443D01*
X40596243Y-1142754D01*
X40596241Y-1142753D01*
X40596240Y-1142753D01*
X40434957Y-1117208D01*
X40386287Y-1109500D01*
X40173713Y-1109500D01*
X40125042Y-1117208D01*
X39963760Y-1142753D01*
X39761585Y-1208444D01*
X39572179Y-1304951D01*
X39400213Y-1429890D01*
X39249890Y-1580213D01*
X39124949Y-1752182D01*
X39120484Y-1760946D01*
X39072509Y-1811742D01*
X39004688Y-1828536D01*
X38938553Y-1805998D01*
X38899516Y-1760946D01*
X38895050Y-1752182D01*
X38770109Y-1580213D01*
X38619786Y-1429890D01*
X38447820Y-1304951D01*
X38258414Y-1208444D01*
X38258413Y-1208443D01*
X38258412Y-1208443D01*
X38056243Y-1142754D01*
X38056241Y-1142753D01*
X38056240Y-1142753D01*
X37894957Y-1117208D01*
X37846287Y-1109500D01*
X37633713Y-1109500D01*
X37585042Y-1117208D01*
X37423760Y-1142753D01*
X37221585Y-1208444D01*
X37032179Y-1304951D01*
X36860213Y-1429890D01*
X36709890Y-1580213D01*
X36584949Y-1752182D01*
X36580484Y-1760946D01*
X36532509Y-1811742D01*
X36464688Y-1828536D01*
X36398553Y-1805998D01*
X36359516Y-1760946D01*
X36355050Y-1752182D01*
X36230109Y-1580213D01*
X36079786Y-1429890D01*
X35907820Y-1304951D01*
X35718414Y-1208444D01*
X35718413Y-1208443D01*
X35718412Y-1208443D01*
X35516243Y-1142754D01*
X35516241Y-1142753D01*
X35516240Y-1142753D01*
X35354957Y-1117208D01*
X35306287Y-1109500D01*
X35093713Y-1109500D01*
X35045042Y-1117208D01*
X34883760Y-1142753D01*
X34681585Y-1208444D01*
X34492179Y-1304951D01*
X34320213Y-1429890D01*
X34169890Y-1580213D01*
X34044949Y-1752182D01*
X34040202Y-1761499D01*
X33992227Y-1812293D01*
X33924405Y-1829087D01*
X33858271Y-1806548D01*
X33819234Y-1761495D01*
X33814626Y-1752452D01*
X33775270Y-1698282D01*
X33775269Y-1698282D01*
X33142962Y-2330590D01*
X33125925Y-2267007D01*
X33060099Y-2152993D01*
X32967007Y-2059901D01*
X32852993Y-1994075D01*
X32789409Y-1977037D01*
X33421716Y-1344728D01*
X33367550Y-1305375D01*
X33178217Y-1208904D01*
X32976129Y-1143242D01*
X32766246Y-1110000D01*
X32553754Y-1110000D01*
X32343872Y-1143242D01*
X32343869Y-1143242D01*
X32141782Y-1208904D01*
X31952439Y-1305380D01*
X31898282Y-1344727D01*
X31898282Y-1344728D01*
X32530591Y-1977037D01*
X32467007Y-1994075D01*
X32352993Y-2059901D01*
X32259901Y-2152993D01*
X32194075Y-2267007D01*
X32177037Y-2330591D01*
X31544728Y-1698282D01*
X31544727Y-1698282D01*
X31505380Y-1752440D01*
X31505376Y-1752446D01*
X31500760Y-1761505D01*
X31452781Y-1812297D01*
X31384959Y-1829087D01*
X31318826Y-1806543D01*
X31279794Y-1761493D01*
X31275051Y-1752184D01*
X31275049Y-1752181D01*
X31275048Y-1752179D01*
X31150109Y-1580213D01*
X30999786Y-1429890D01*
X30827820Y-1304951D01*
X30638414Y-1208444D01*
X30638413Y-1208443D01*
X30638412Y-1208443D01*
X30436243Y-1142754D01*
X30436241Y-1142753D01*
X30436240Y-1142753D01*
X30274957Y-1117208D01*
X30226287Y-1109500D01*
X30013713Y-1109500D01*
X29965042Y-1117208D01*
X29803760Y-1142753D01*
X29601585Y-1208444D01*
X29412179Y-1304951D01*
X29240213Y-1429890D01*
X29089890Y-1580213D01*
X28964949Y-1752182D01*
X28960484Y-1760946D01*
X28912509Y-1811742D01*
X28844688Y-1828536D01*
X28778553Y-1805998D01*
X28739516Y-1760946D01*
X28735050Y-1752182D01*
X28610109Y-1580213D01*
X28459786Y-1429890D01*
X28287820Y-1304951D01*
X28098414Y-1208444D01*
X28098413Y-1208443D01*
X28098412Y-1208443D01*
X27896243Y-1142754D01*
X27896241Y-1142753D01*
X27896240Y-1142753D01*
X27734957Y-1117208D01*
X27686287Y-1109500D01*
X27473713Y-1109500D01*
X27363888Y-1126894D01*
X27258945Y-1143516D01*
X27258686Y-1141882D01*
X27196094Y-1138730D01*
X27149288Y-1109342D01*
X25325573Y714373D01*
X25325569Y714377D01*
X25219027Y785565D01*
X25100644Y834601D01*
X25059515Y842782D01*
X24974971Y859600D01*
X24974969Y859600D01*
X8636331Y859600D01*
X8636329Y859600D01*
X8510661Y834602D01*
X8510656Y834601D01*
X8392273Y785565D01*
X8285731Y714377D01*
X8285729Y714375D01*
X8285726Y714373D01*
X8285725Y714372D01*
X6434927Y-1136425D01*
X6434924Y-1136428D01*
X6386806Y-1208442D01*
X6386807Y-1208443D01*
X6363734Y-1242974D01*
X6314699Y-1361355D01*
X6314697Y-1361361D01*
X6289700Y-1487028D01*
X6289700Y-12085291D01*
X6270015Y-12152330D01*
X6253381Y-12172972D01*
X4390199Y-14036153D01*
X4328876Y-14069638D01*
X4259184Y-14064654D01*
X4203251Y-14022782D01*
X4192033Y-14004766D01*
X4155050Y-13932182D01*
X4030109Y-13760213D01*
X3879786Y-13609890D01*
X3707820Y-13484951D01*
X3707115Y-13484591D01*
X3699054Y-13480485D01*
X3648259Y-13432512D01*
X3631463Y-13364692D01*
X3653999Y-13298556D01*
X3699054Y-13259515D01*
X3707816Y-13255051D01*
X3729789Y-13239086D01*
X3879786Y-13130109D01*
X3879788Y-13130106D01*
X3879792Y-13130104D01*
X4030104Y-12979792D01*
X4030106Y-12979788D01*
X4030109Y-12979786D01*
X4139086Y-12829789D01*
X4155051Y-12807816D01*
X4251557Y-12618412D01*
X4317246Y-12416243D01*
X4350500Y-12206287D01*
X4350500Y-11993713D01*
X4317246Y-11783757D01*
X4251557Y-11581588D01*
X4155051Y-11392184D01*
X4155049Y-11392181D01*
X4155048Y-11392179D01*
X4030109Y-11220213D01*
X3879786Y-11069890D01*
X3707820Y-10944951D01*
X3518414Y-10848444D01*
X3518413Y-10848443D01*
X3518412Y-10848443D01*
X3316243Y-10782754D01*
X3316241Y-10782753D01*
X3316240Y-10782753D01*
X3154957Y-10757208D01*
X3106287Y-10749500D01*
X2893713Y-10749500D01*
X2845042Y-10757208D01*
X2683760Y-10782753D01*
X2481585Y-10848444D01*
X2292179Y-10944951D01*
X2120213Y-11069890D01*
X1969890Y-11220213D01*
X1844951Y-11392179D01*
X1748444Y-11581585D01*
X1682753Y-11783760D01*
X1649500Y-11993713D01*
X1649500Y-12206286D01*
X1683516Y-12421055D01*
X1681877Y-12421314D01*
X1678738Y-12483883D01*
X1649342Y-12530710D01*
X712181Y-13467872D01*
X650858Y-13501357D01*
X581167Y-13496373D01*
X525233Y-13454501D01*
X500816Y-13389037D01*
X500500Y-13380191D01*
X500500Y-3374038D01*
X1899500Y-3374038D01*
X1899500Y-3625962D01*
X1927294Y-3801447D01*
X1938910Y-3874785D01*
X2016760Y-4114383D01*
X2095413Y-4268747D01*
X2112104Y-4301505D01*
X2131132Y-4338848D01*
X2279201Y-4542649D01*
X2279205Y-4542654D01*
X2457345Y-4720794D01*
X2457350Y-4720798D01*
X2619829Y-4838845D01*
X2661155Y-4868870D01*
X2804184Y-4941747D01*
X2885616Y-4983239D01*
X2885618Y-4983239D01*
X2885621Y-4983241D01*
X3125215Y-5061090D01*
X3374038Y-5100500D01*
X3374039Y-5100500D01*
X3625961Y-5100500D01*
X3625962Y-5100500D01*
X3874785Y-5061090D01*
X4114379Y-4983241D01*
X4338845Y-4868870D01*
X4542656Y-4720793D01*
X4720793Y-4542656D01*
X4868870Y-4338845D01*
X4983241Y-4114379D01*
X5061090Y-3874785D01*
X5100500Y-3625962D01*
X5100500Y-3374038D01*
X5061090Y-3125215D01*
X4983241Y-2885621D01*
X4983239Y-2885618D01*
X4983239Y-2885616D01*
X4922804Y-2767007D01*
X4868870Y-2661155D01*
X4770548Y-2525826D01*
X4720798Y-2457350D01*
X4720794Y-2457345D01*
X4542654Y-2279205D01*
X4542649Y-2279201D01*
X4338848Y-2131132D01*
X4338847Y-2131131D01*
X4338845Y-2131130D01*
X4268747Y-2095413D01*
X4114383Y-2016760D01*
X3874785Y-1938910D01*
X3625962Y-1899500D01*
X3374038Y-1899500D01*
X3249626Y-1919205D01*
X3125214Y-1938910D01*
X2885616Y-2016760D01*
X2661151Y-2131132D01*
X2457350Y-2279201D01*
X2457345Y-2279205D01*
X2279205Y-2457345D01*
X2279201Y-2457350D01*
X2131132Y-2661151D01*
X2016760Y-2885616D01*
X1938910Y-3125214D01*
X1932162Y-3167817D01*
X1899500Y-3374038D01*
X500500Y-3374038D01*
X500500Y3375500D01*
X520185Y3442539D01*
X572989Y3488294D01*
X624500Y3499500D01*
X84628075Y3499500D01*
X84695114Y3479815D01*
G37*
%TD.AperFunction*%
%TA.AperFunction,Conductor*%
G36*
X18761444Y-3113999D02*
G01*
X18800486Y-3159056D01*
X18804951Y-3167820D01*
X18929890Y-3339786D01*
X19080213Y-3490109D01*
X19252179Y-3615048D01*
X19252181Y-3615049D01*
X19252184Y-3615051D01*
X19261493Y-3619794D01*
X19312290Y-3667766D01*
X19329087Y-3735587D01*
X19306552Y-3801722D01*
X19261505Y-3840760D01*
X19252446Y-3845376D01*
X19252440Y-3845380D01*
X19198282Y-3884727D01*
X19198282Y-3884728D01*
X19830591Y-4517037D01*
X19767007Y-4534075D01*
X19652993Y-4599901D01*
X19559901Y-4692993D01*
X19494075Y-4807007D01*
X19477037Y-4870591D01*
X18844728Y-4238282D01*
X18844727Y-4238282D01*
X18805380Y-4292440D01*
X18805376Y-4292446D01*
X18800760Y-4301505D01*
X18752781Y-4352297D01*
X18684959Y-4369087D01*
X18618826Y-4346543D01*
X18579794Y-4301493D01*
X18575051Y-4292184D01*
X18575049Y-4292181D01*
X18575048Y-4292179D01*
X18450109Y-4120213D01*
X18299786Y-3969890D01*
X18127820Y-3844951D01*
X18119600Y-3840763D01*
X18119054Y-3840485D01*
X18068259Y-3792512D01*
X18051463Y-3724692D01*
X18073999Y-3658556D01*
X18119054Y-3619515D01*
X18127816Y-3615051D01*
X18217554Y-3549853D01*
X18299786Y-3490109D01*
X18299788Y-3490106D01*
X18299792Y-3490104D01*
X18450104Y-3339792D01*
X18450106Y-3339788D01*
X18450109Y-3339786D01*
X18575048Y-3167820D01*
X18575047Y-3167820D01*
X18575051Y-3167816D01*
X18579514Y-3159054D01*
X18627488Y-3108259D01*
X18695308Y-3091463D01*
X18761444Y-3113999D01*
G37*
%TD.AperFunction*%
%TA.AperFunction,Conductor*%
G36*
X39081444Y-3113999D02*
G01*
X39120486Y-3159056D01*
X39124951Y-3167820D01*
X39249890Y-3339786D01*
X39400213Y-3490109D01*
X39572179Y-3615048D01*
X39572181Y-3615049D01*
X39572184Y-3615051D01*
X39581493Y-3619794D01*
X39632290Y-3667766D01*
X39649087Y-3735587D01*
X39626552Y-3801722D01*
X39581505Y-3840760D01*
X39572446Y-3845376D01*
X39572440Y-3845380D01*
X39518282Y-3884727D01*
X39518282Y-3884728D01*
X40150591Y-4517037D01*
X40087007Y-4534075D01*
X39972993Y-4599901D01*
X39879901Y-4692993D01*
X39814075Y-4807007D01*
X39797037Y-4870591D01*
X39164728Y-4238282D01*
X39164727Y-4238282D01*
X39125380Y-4292440D01*
X39125376Y-4292446D01*
X39120760Y-4301505D01*
X39072781Y-4352297D01*
X39004959Y-4369087D01*
X38938826Y-4346543D01*
X38899794Y-4301493D01*
X38895051Y-4292184D01*
X38895049Y-4292181D01*
X38895048Y-4292179D01*
X38770109Y-4120213D01*
X38619786Y-3969890D01*
X38447820Y-3844951D01*
X38439600Y-3840763D01*
X38439054Y-3840485D01*
X38388259Y-3792512D01*
X38371463Y-3724692D01*
X38393999Y-3658556D01*
X38439054Y-3619515D01*
X38447816Y-3615051D01*
X38537554Y-3549853D01*
X38619786Y-3490109D01*
X38619788Y-3490106D01*
X38619792Y-3490104D01*
X38770104Y-3339792D01*
X38770106Y-3339788D01*
X38770109Y-3339786D01*
X38895048Y-3167820D01*
X38895047Y-3167820D01*
X38895051Y-3167816D01*
X38899514Y-3159054D01*
X38947488Y-3108259D01*
X39015308Y-3091463D01*
X39081444Y-3113999D01*
G37*
%TD.AperFunction*%
%TA.AperFunction,Conductor*%
G36*
X56861444Y-3113999D02*
G01*
X56900486Y-3159056D01*
X56904951Y-3167820D01*
X57029890Y-3339786D01*
X57180213Y-3490109D01*
X57352179Y-3615048D01*
X57352181Y-3615049D01*
X57352184Y-3615051D01*
X57361493Y-3619794D01*
X57412290Y-3667766D01*
X57429087Y-3735587D01*
X57406552Y-3801722D01*
X57361505Y-3840760D01*
X57352446Y-3845376D01*
X57352440Y-3845380D01*
X57298282Y-3884727D01*
X57298282Y-3884728D01*
X57930591Y-4517037D01*
X57867007Y-4534075D01*
X57752993Y-4599901D01*
X57659901Y-4692993D01*
X57594075Y-4807007D01*
X57577037Y-4870591D01*
X56944728Y-4238282D01*
X56944727Y-4238282D01*
X56905380Y-4292440D01*
X56905376Y-4292446D01*
X56900760Y-4301505D01*
X56852781Y-4352297D01*
X56784959Y-4369087D01*
X56718826Y-4346543D01*
X56679794Y-4301493D01*
X56675051Y-4292184D01*
X56675049Y-4292181D01*
X56675048Y-4292179D01*
X56550109Y-4120213D01*
X56399786Y-3969890D01*
X56227820Y-3844951D01*
X56219600Y-3840763D01*
X56219054Y-3840485D01*
X56168259Y-3792512D01*
X56151463Y-3724692D01*
X56173999Y-3658556D01*
X56219054Y-3619515D01*
X56227816Y-3615051D01*
X56317554Y-3549853D01*
X56399786Y-3490109D01*
X56399788Y-3490106D01*
X56399792Y-3490104D01*
X56550104Y-3339792D01*
X56550106Y-3339788D01*
X56550109Y-3339786D01*
X56675048Y-3167820D01*
X56675047Y-3167820D01*
X56675051Y-3167816D01*
X56679514Y-3159054D01*
X56727488Y-3108259D01*
X56795308Y-3091463D01*
X56861444Y-3113999D01*
G37*
%TD.AperFunction*%
%TA.AperFunction,Conductor*%
G36*
X21301444Y-3113999D02*
G01*
X21340486Y-3159056D01*
X21344951Y-3167820D01*
X21469890Y-3339786D01*
X21620213Y-3490109D01*
X21792182Y-3615050D01*
X21800946Y-3619516D01*
X21851742Y-3667491D01*
X21868536Y-3735312D01*
X21845998Y-3801447D01*
X21800946Y-3840484D01*
X21792182Y-3844949D01*
X21620213Y-3969890D01*
X21469890Y-4120213D01*
X21344949Y-4292182D01*
X21340202Y-4301499D01*
X21292227Y-4352293D01*
X21224405Y-4369087D01*
X21158271Y-4346548D01*
X21119234Y-4301495D01*
X21114626Y-4292452D01*
X21075270Y-4238282D01*
X21075269Y-4238282D01*
X20442962Y-4870590D01*
X20425925Y-4807007D01*
X20360099Y-4692993D01*
X20267007Y-4599901D01*
X20152993Y-4534075D01*
X20089409Y-4517037D01*
X20721716Y-3884728D01*
X20667547Y-3845373D01*
X20667547Y-3845372D01*
X20658500Y-3840763D01*
X20607706Y-3792788D01*
X20590912Y-3724966D01*
X20613451Y-3658832D01*
X20658508Y-3619793D01*
X20667816Y-3615051D01*
X20770763Y-3540256D01*
X20839786Y-3490109D01*
X20839788Y-3490106D01*
X20839792Y-3490104D01*
X20990104Y-3339792D01*
X20990106Y-3339788D01*
X20990109Y-3339786D01*
X21115048Y-3167820D01*
X21115047Y-3167820D01*
X21115051Y-3167816D01*
X21119514Y-3159054D01*
X21167488Y-3108259D01*
X21235308Y-3091463D01*
X21301444Y-3113999D01*
G37*
%TD.AperFunction*%
%TA.AperFunction,Conductor*%
G36*
X41621444Y-3113999D02*
G01*
X41660486Y-3159056D01*
X41664951Y-3167820D01*
X41789890Y-3339786D01*
X41940213Y-3490109D01*
X42112182Y-3615050D01*
X42120946Y-3619516D01*
X42171742Y-3667491D01*
X42188536Y-3735312D01*
X42165998Y-3801447D01*
X42120946Y-3840484D01*
X42112182Y-3844949D01*
X41940213Y-3969890D01*
X41789890Y-4120213D01*
X41664949Y-4292182D01*
X41660202Y-4301499D01*
X41612227Y-4352293D01*
X41544405Y-4369087D01*
X41478271Y-4346548D01*
X41439234Y-4301495D01*
X41434626Y-4292452D01*
X41395270Y-4238282D01*
X41395269Y-4238282D01*
X40762962Y-4870590D01*
X40745925Y-4807007D01*
X40680099Y-4692993D01*
X40587007Y-4599901D01*
X40472993Y-4534075D01*
X40409409Y-4517037D01*
X41041716Y-3884728D01*
X40987547Y-3845373D01*
X40987547Y-3845372D01*
X40978500Y-3840763D01*
X40927706Y-3792788D01*
X40910912Y-3724966D01*
X40933451Y-3658832D01*
X40978508Y-3619793D01*
X40987816Y-3615051D01*
X41090763Y-3540256D01*
X41159786Y-3490109D01*
X41159788Y-3490106D01*
X41159792Y-3490104D01*
X41310104Y-3339792D01*
X41310106Y-3339788D01*
X41310109Y-3339786D01*
X41435048Y-3167820D01*
X41435047Y-3167820D01*
X41435051Y-3167816D01*
X41439514Y-3159054D01*
X41487488Y-3108259D01*
X41555308Y-3091463D01*
X41621444Y-3113999D01*
G37*
%TD.AperFunction*%
%TA.AperFunction,Conductor*%
G36*
X14414075Y-2652993D02*
G01*
X14479901Y-2767007D01*
X14572993Y-2860099D01*
X14687007Y-2925925D01*
X14750590Y-2942962D01*
X14118282Y-3575269D01*
X14118282Y-3575270D01*
X14172452Y-3614626D01*
X14172451Y-3614626D01*
X14181495Y-3619234D01*
X14232292Y-3667208D01*
X14249087Y-3735029D01*
X14226550Y-3801164D01*
X14181499Y-3840202D01*
X14172182Y-3844949D01*
X14000213Y-3969890D01*
X13849890Y-4120213D01*
X13724949Y-4292182D01*
X13720484Y-4300946D01*
X13672509Y-4351742D01*
X13604688Y-4368536D01*
X13538553Y-4345998D01*
X13499516Y-4300946D01*
X13495050Y-4292182D01*
X13370109Y-4120213D01*
X13219786Y-3969890D01*
X13047820Y-3844951D01*
X13039600Y-3840763D01*
X13039054Y-3840485D01*
X12988259Y-3792512D01*
X12971463Y-3724692D01*
X12993999Y-3658556D01*
X13039054Y-3619515D01*
X13047816Y-3615051D01*
X13137554Y-3549853D01*
X13219786Y-3490109D01*
X13219788Y-3490106D01*
X13219792Y-3490104D01*
X13370104Y-3339792D01*
X13370106Y-3339788D01*
X13370109Y-3339786D01*
X13455890Y-3221717D01*
X13495051Y-3167816D01*
X13499793Y-3158508D01*
X13547763Y-3107711D01*
X13615583Y-3090911D01*
X13681719Y-3113445D01*
X13720763Y-3158500D01*
X13725373Y-3167547D01*
X13764728Y-3221716D01*
X14397037Y-2589408D01*
X14414075Y-2652993D01*
G37*
%TD.AperFunction*%
%TA.AperFunction,Conductor*%
G36*
X15995270Y-3221717D02*
G01*
X15995270Y-3221716D01*
X16034622Y-3167555D01*
X16039232Y-3158507D01*
X16087205Y-3107709D01*
X16155025Y-3090912D01*
X16221161Y-3113447D01*
X16260204Y-3158504D01*
X16264949Y-3167817D01*
X16389890Y-3339786D01*
X16540213Y-3490109D01*
X16712182Y-3615050D01*
X16720946Y-3619516D01*
X16771742Y-3667491D01*
X16788536Y-3735312D01*
X16765998Y-3801447D01*
X16720946Y-3840484D01*
X16712182Y-3844949D01*
X16540213Y-3969890D01*
X16389890Y-4120213D01*
X16264949Y-4292182D01*
X16260484Y-4300946D01*
X16212509Y-4351742D01*
X16144688Y-4368536D01*
X16078553Y-4345998D01*
X16039516Y-4300946D01*
X16035050Y-4292182D01*
X15910109Y-4120213D01*
X15759786Y-3969890D01*
X15587817Y-3844949D01*
X15578504Y-3840204D01*
X15527707Y-3792230D01*
X15510912Y-3724409D01*
X15533449Y-3658274D01*
X15578507Y-3619232D01*
X15587555Y-3614622D01*
X15641716Y-3575270D01*
X15641717Y-3575270D01*
X15009408Y-2942962D01*
X15072993Y-2925925D01*
X15187007Y-2860099D01*
X15280099Y-2767007D01*
X15345925Y-2652993D01*
X15362962Y-2589409D01*
X15995270Y-3221717D01*
G37*
%TD.AperFunction*%
%TA.AperFunction,Conductor*%
G36*
X24574075Y-2652993D02*
G01*
X24639901Y-2767007D01*
X24732993Y-2860099D01*
X24847007Y-2925925D01*
X24910590Y-2942962D01*
X24278282Y-3575269D01*
X24278282Y-3575270D01*
X24332452Y-3614626D01*
X24332451Y-3614626D01*
X24341495Y-3619234D01*
X24392292Y-3667208D01*
X24409087Y-3735029D01*
X24386550Y-3801164D01*
X24341499Y-3840202D01*
X24332182Y-3844949D01*
X24160213Y-3969890D01*
X24009890Y-4120213D01*
X23884949Y-4292182D01*
X23880484Y-4300946D01*
X23832509Y-4351742D01*
X23764688Y-4368536D01*
X23698553Y-4345998D01*
X23659516Y-4300946D01*
X23655050Y-4292182D01*
X23530109Y-4120213D01*
X23379786Y-3969890D01*
X23207820Y-3844951D01*
X23199600Y-3840763D01*
X23199054Y-3840485D01*
X23148259Y-3792512D01*
X23131463Y-3724692D01*
X23153999Y-3658556D01*
X23199054Y-3619515D01*
X23207816Y-3615051D01*
X23297554Y-3549853D01*
X23379786Y-3490109D01*
X23379788Y-3490106D01*
X23379792Y-3490104D01*
X23530104Y-3339792D01*
X23530106Y-3339788D01*
X23530109Y-3339786D01*
X23615890Y-3221717D01*
X23655051Y-3167816D01*
X23659793Y-3158508D01*
X23707763Y-3107711D01*
X23775583Y-3090911D01*
X23841719Y-3113445D01*
X23880763Y-3158500D01*
X23885373Y-3167547D01*
X23924728Y-3221716D01*
X24557037Y-2589408D01*
X24574075Y-2652993D01*
G37*
%TD.AperFunction*%
%TA.AperFunction,Conductor*%
G36*
X26155270Y-3221717D02*
G01*
X26155270Y-3221716D01*
X26194622Y-3167555D01*
X26199232Y-3158507D01*
X26247205Y-3107709D01*
X26315025Y-3090912D01*
X26381161Y-3113447D01*
X26420204Y-3158504D01*
X26424949Y-3167817D01*
X26549890Y-3339786D01*
X26700213Y-3490109D01*
X26872182Y-3615050D01*
X26880946Y-3619516D01*
X26931742Y-3667491D01*
X26948536Y-3735312D01*
X26925998Y-3801447D01*
X26880946Y-3840484D01*
X26872182Y-3844949D01*
X26700213Y-3969890D01*
X26549890Y-4120213D01*
X26424949Y-4292182D01*
X26420484Y-4300946D01*
X26372509Y-4351742D01*
X26304688Y-4368536D01*
X26238553Y-4345998D01*
X26199516Y-4300946D01*
X26195050Y-4292182D01*
X26070109Y-4120213D01*
X25919786Y-3969890D01*
X25747817Y-3844949D01*
X25738504Y-3840204D01*
X25687707Y-3792230D01*
X25670912Y-3724409D01*
X25693449Y-3658274D01*
X25738507Y-3619232D01*
X25747555Y-3614622D01*
X25801716Y-3575270D01*
X25801717Y-3575270D01*
X25169408Y-2942962D01*
X25232993Y-2925925D01*
X25347007Y-2860099D01*
X25440099Y-2767007D01*
X25505925Y-2652993D01*
X25522962Y-2589408D01*
X26155270Y-3221717D01*
G37*
%TD.AperFunction*%
%TA.AperFunction,Conductor*%
G36*
X32194075Y-2652993D02*
G01*
X32259901Y-2767007D01*
X32352993Y-2860099D01*
X32467007Y-2925925D01*
X32530590Y-2942962D01*
X31898282Y-3575269D01*
X31898282Y-3575270D01*
X31952452Y-3614626D01*
X31952451Y-3614626D01*
X31961495Y-3619234D01*
X32012292Y-3667208D01*
X32029087Y-3735029D01*
X32006550Y-3801164D01*
X31961499Y-3840202D01*
X31952182Y-3844949D01*
X31780213Y-3969890D01*
X31629890Y-4120213D01*
X31504949Y-4292182D01*
X31500484Y-4300946D01*
X31452509Y-4351742D01*
X31384688Y-4368536D01*
X31318553Y-4345998D01*
X31279516Y-4300946D01*
X31275050Y-4292182D01*
X31150109Y-4120213D01*
X30999786Y-3969890D01*
X30827820Y-3844951D01*
X30819600Y-3840763D01*
X30819054Y-3840485D01*
X30768259Y-3792512D01*
X30751463Y-3724692D01*
X30773999Y-3658556D01*
X30819054Y-3619515D01*
X30827816Y-3615051D01*
X30917554Y-3549853D01*
X30999786Y-3490109D01*
X30999788Y-3490106D01*
X30999792Y-3490104D01*
X31150104Y-3339792D01*
X31150106Y-3339788D01*
X31150109Y-3339786D01*
X31235890Y-3221717D01*
X31275051Y-3167816D01*
X31279793Y-3158508D01*
X31327763Y-3107711D01*
X31395583Y-3090911D01*
X31461719Y-3113445D01*
X31500763Y-3158500D01*
X31505373Y-3167547D01*
X31544728Y-3221716D01*
X32177037Y-2589408D01*
X32194075Y-2652993D01*
G37*
%TD.AperFunction*%
%TA.AperFunction,Conductor*%
G36*
X44894075Y-2652993D02*
G01*
X44959901Y-2767007D01*
X45052993Y-2860099D01*
X45167007Y-2925925D01*
X45230590Y-2942962D01*
X44598282Y-3575269D01*
X44598282Y-3575270D01*
X44652452Y-3614626D01*
X44652451Y-3614626D01*
X44661495Y-3619234D01*
X44712292Y-3667208D01*
X44729087Y-3735029D01*
X44706550Y-3801164D01*
X44661499Y-3840202D01*
X44652182Y-3844949D01*
X44480213Y-3969890D01*
X44329890Y-4120213D01*
X44204949Y-4292182D01*
X44200484Y-4300946D01*
X44152509Y-4351742D01*
X44084688Y-4368536D01*
X44018553Y-4345998D01*
X43979516Y-4300946D01*
X43975050Y-4292182D01*
X43850109Y-4120213D01*
X43699786Y-3969890D01*
X43527820Y-3844951D01*
X43519600Y-3840763D01*
X43519054Y-3840485D01*
X43468259Y-3792512D01*
X43451463Y-3724692D01*
X43473999Y-3658556D01*
X43519054Y-3619515D01*
X43527816Y-3615051D01*
X43617554Y-3549853D01*
X43699786Y-3490109D01*
X43699788Y-3490106D01*
X43699792Y-3490104D01*
X43850104Y-3339792D01*
X43850106Y-3339788D01*
X43850109Y-3339786D01*
X43935890Y-3221717D01*
X43975051Y-3167816D01*
X43979793Y-3158508D01*
X44027763Y-3107711D01*
X44095583Y-3090911D01*
X44161719Y-3113445D01*
X44200763Y-3158500D01*
X44205373Y-3167547D01*
X44244728Y-3221716D01*
X44877037Y-2589408D01*
X44894075Y-2652993D01*
G37*
%TD.AperFunction*%
%TA.AperFunction,Conductor*%
G36*
X46475270Y-3221717D02*
G01*
X46475270Y-3221716D01*
X46514622Y-3167555D01*
X46519232Y-3158507D01*
X46567205Y-3107709D01*
X46635025Y-3090912D01*
X46701161Y-3113447D01*
X46740204Y-3158504D01*
X46744949Y-3167817D01*
X46869890Y-3339786D01*
X47020213Y-3490109D01*
X47192182Y-3615050D01*
X47200946Y-3619516D01*
X47251742Y-3667491D01*
X47268536Y-3735312D01*
X47245998Y-3801447D01*
X47200946Y-3840484D01*
X47192182Y-3844949D01*
X47020213Y-3969890D01*
X46869890Y-4120213D01*
X46744949Y-4292182D01*
X46740484Y-4300946D01*
X46692509Y-4351742D01*
X46624688Y-4368536D01*
X46558553Y-4345998D01*
X46519516Y-4300946D01*
X46515050Y-4292182D01*
X46390109Y-4120213D01*
X46239786Y-3969890D01*
X46067817Y-3844949D01*
X46058504Y-3840204D01*
X46007707Y-3792230D01*
X45990912Y-3724409D01*
X46013449Y-3658274D01*
X46058507Y-3619232D01*
X46067555Y-3614622D01*
X46121716Y-3575270D01*
X46121717Y-3575270D01*
X45489408Y-2942962D01*
X45552993Y-2925925D01*
X45667007Y-2860099D01*
X45760099Y-2767007D01*
X45825925Y-2652993D01*
X45842962Y-2589408D01*
X46475270Y-3221717D01*
G37*
%TD.AperFunction*%
%TA.AperFunction,Conductor*%
G36*
X49974075Y-2652993D02*
G01*
X50039901Y-2767007D01*
X50132993Y-2860099D01*
X50247007Y-2925925D01*
X50310590Y-2942962D01*
X49678282Y-3575269D01*
X49678282Y-3575270D01*
X49732452Y-3614626D01*
X49732451Y-3614626D01*
X49741495Y-3619234D01*
X49792292Y-3667208D01*
X49809087Y-3735029D01*
X49786550Y-3801164D01*
X49741499Y-3840202D01*
X49732182Y-3844949D01*
X49560213Y-3969890D01*
X49409890Y-4120213D01*
X49284949Y-4292182D01*
X49280484Y-4300946D01*
X49232509Y-4351742D01*
X49164688Y-4368536D01*
X49098553Y-4345998D01*
X49059516Y-4300946D01*
X49055050Y-4292182D01*
X48930109Y-4120213D01*
X48779786Y-3969890D01*
X48607820Y-3844951D01*
X48599600Y-3840763D01*
X48599054Y-3840485D01*
X48548259Y-3792512D01*
X48531463Y-3724692D01*
X48553999Y-3658556D01*
X48599054Y-3619515D01*
X48607816Y-3615051D01*
X48697554Y-3549853D01*
X48779786Y-3490109D01*
X48779788Y-3490106D01*
X48779792Y-3490104D01*
X48930104Y-3339792D01*
X48930106Y-3339788D01*
X48930109Y-3339786D01*
X49015890Y-3221717D01*
X49055051Y-3167816D01*
X49059793Y-3158508D01*
X49107763Y-3107711D01*
X49175583Y-3090911D01*
X49241719Y-3113445D01*
X49280763Y-3158500D01*
X49285373Y-3167547D01*
X49324728Y-3221716D01*
X49957037Y-2589408D01*
X49974075Y-2652993D01*
G37*
%TD.AperFunction*%
%TA.AperFunction,Conductor*%
G36*
X51555270Y-3221717D02*
G01*
X51555270Y-3221716D01*
X51594622Y-3167555D01*
X51599232Y-3158507D01*
X51647205Y-3107709D01*
X51715025Y-3090912D01*
X51781161Y-3113447D01*
X51820204Y-3158504D01*
X51824949Y-3167817D01*
X51949890Y-3339786D01*
X52100213Y-3490109D01*
X52272182Y-3615050D01*
X52280946Y-3619516D01*
X52331742Y-3667491D01*
X52348536Y-3735312D01*
X52325998Y-3801447D01*
X52280946Y-3840484D01*
X52272182Y-3844949D01*
X52100213Y-3969890D01*
X51949890Y-4120213D01*
X51824949Y-4292182D01*
X51820484Y-4300946D01*
X51772509Y-4351742D01*
X51704688Y-4368536D01*
X51638553Y-4345998D01*
X51599516Y-4300946D01*
X51595050Y-4292182D01*
X51470109Y-4120213D01*
X51319786Y-3969890D01*
X51147817Y-3844949D01*
X51138504Y-3840204D01*
X51087707Y-3792230D01*
X51070912Y-3724409D01*
X51093449Y-3658274D01*
X51138507Y-3619232D01*
X51147555Y-3614622D01*
X51201716Y-3575270D01*
X51201717Y-3575270D01*
X50569408Y-2942962D01*
X50632993Y-2925925D01*
X50747007Y-2860099D01*
X50840099Y-2767007D01*
X50905925Y-2652993D01*
X50922962Y-2589408D01*
X51555270Y-3221717D01*
G37*
%TD.AperFunction*%
%TD*%
M02*
